<mxfile host="app.diagrams.net" modified="2023-06-17T15:00:05.228Z" agent="Mozilla/5.0 (Windows NT 10.0; Win64; x64) AppleWebKit/537.36 (KHTML, like Gecko) Chrome/114.0.0.0 Safari/537.36" etag="Z_A_ybhnCpVN2zHJ7FOK" version="21.4.0" type="github">
  <diagram id="WDzS4ZiVjdlWBc4Naw3w" name="Seite-1">
    <mxGraphModel dx="819" dy="1624" grid="1" gridSize="10" guides="1" tooltips="1" connect="1" arrows="1" fold="1" page="1" pageScale="1" pageWidth="827" pageHeight="1169" math="0" shadow="0">
      <root>
        <mxCell id="0" />
        <mxCell id="1" parent="0" />
        <mxCell id="kdA-taJ_aWkf9tYC6nDx-21" value="" style="endArrow=none;html=1;rounded=0;" parent="1" edge="1">
          <mxGeometry width="50" height="50" relative="1" as="geometry">
            <mxPoint x="150" y="200" as="sourcePoint" />
            <mxPoint x="320" y="200" as="targetPoint" />
            <Array as="points">
              <mxPoint x="240" y="200" />
              <mxPoint x="240" y="160" />
              <mxPoint x="320" y="160" />
            </Array>
          </mxGeometry>
        </mxCell>
        <mxCell id="kdA-taJ_aWkf9tYC6nDx-22" value="" style="endArrow=none;html=1;rounded=0;" parent="1" edge="1">
          <mxGeometry width="50" height="50" relative="1" as="geometry">
            <mxPoint x="320" y="200" as="sourcePoint" />
            <mxPoint x="480" y="200" as="targetPoint" />
            <Array as="points">
              <mxPoint x="400" y="200" />
              <mxPoint x="400" y="160" />
              <mxPoint x="480" y="160" />
            </Array>
          </mxGeometry>
        </mxCell>
        <mxCell id="kdA-taJ_aWkf9tYC6nDx-23" value="" style="endArrow=none;html=1;rounded=0;" parent="1" edge="1">
          <mxGeometry width="50" height="50" relative="1" as="geometry">
            <mxPoint x="480" y="200" as="sourcePoint" />
            <mxPoint x="640" y="200" as="targetPoint" />
            <Array as="points">
              <mxPoint x="560" y="200" />
              <mxPoint x="560" y="160" />
              <mxPoint x="640" y="160" />
            </Array>
          </mxGeometry>
        </mxCell>
        <mxCell id="kdA-taJ_aWkf9tYC6nDx-24" value="" style="endArrow=none;html=1;rounded=0;" parent="1" edge="1">
          <mxGeometry width="50" height="50" relative="1" as="geometry">
            <mxPoint x="640" y="200" as="sourcePoint" />
            <mxPoint x="800" y="200" as="targetPoint" />
            <Array as="points">
              <mxPoint x="720" y="200" />
              <mxPoint x="720" y="160" />
              <mxPoint x="800" y="160" />
            </Array>
          </mxGeometry>
        </mxCell>
        <mxCell id="kdA-taJ_aWkf9tYC6nDx-25" value="" style="endArrow=none;html=1;rounded=0;" parent="1" edge="1">
          <mxGeometry width="50" height="50" relative="1" as="geometry">
            <mxPoint x="800" y="200" as="sourcePoint" />
            <mxPoint x="960" y="200" as="targetPoint" />
            <Array as="points">
              <mxPoint x="880" y="200" />
              <mxPoint x="880" y="160" />
              <mxPoint x="960" y="160" />
            </Array>
          </mxGeometry>
        </mxCell>
        <mxCell id="kdA-taJ_aWkf9tYC6nDx-31" value="" style="endArrow=none;html=1;rounded=0;" parent="1" edge="1">
          <mxGeometry width="50" height="50" relative="1" as="geometry">
            <mxPoint x="150" y="280" as="sourcePoint" />
            <mxPoint x="330" y="280" as="targetPoint" />
            <Array as="points">
              <mxPoint x="240" y="280" />
              <mxPoint x="240" y="240" />
              <mxPoint x="330" y="240" />
            </Array>
          </mxGeometry>
        </mxCell>
        <mxCell id="kdA-taJ_aWkf9tYC6nDx-32" value="" style="endArrow=none;html=1;rounded=0;" parent="1" edge="1">
          <mxGeometry width="50" height="50" relative="1" as="geometry">
            <mxPoint x="330" y="280" as="sourcePoint" />
            <mxPoint x="510" y="280" as="targetPoint" />
            <Array as="points">
              <mxPoint x="420" y="280" />
              <mxPoint x="420" y="240" />
              <mxPoint x="510" y="240" />
            </Array>
          </mxGeometry>
        </mxCell>
        <mxCell id="kdA-taJ_aWkf9tYC6nDx-33" value="" style="endArrow=none;html=1;rounded=0;" parent="1" edge="1">
          <mxGeometry width="50" height="50" relative="1" as="geometry">
            <mxPoint x="510" y="280" as="sourcePoint" />
            <mxPoint x="690" y="280" as="targetPoint" />
            <Array as="points">
              <mxPoint x="600" y="280" />
              <mxPoint x="600" y="240" />
              <mxPoint x="690" y="240" />
            </Array>
          </mxGeometry>
        </mxCell>
        <mxCell id="kdA-taJ_aWkf9tYC6nDx-34" value="" style="endArrow=none;html=1;rounded=0;" parent="1" edge="1">
          <mxGeometry width="50" height="50" relative="1" as="geometry">
            <mxPoint x="690" y="280" as="sourcePoint" />
            <mxPoint x="870" y="280" as="targetPoint" />
            <Array as="points">
              <mxPoint x="780" y="280" />
              <mxPoint x="780" y="240" />
              <mxPoint x="870" y="240" />
            </Array>
          </mxGeometry>
        </mxCell>
        <mxCell id="kdA-taJ_aWkf9tYC6nDx-35" value="" style="endArrow=none;html=1;rounded=0;" parent="1" edge="1">
          <mxGeometry width="50" height="50" relative="1" as="geometry">
            <mxPoint x="870" y="280" as="sourcePoint" />
            <mxPoint x="1050" y="280" as="targetPoint" />
            <Array as="points">
              <mxPoint x="960" y="280" />
              <mxPoint x="960" y="240" />
              <mxPoint x="1050" y="240" />
            </Array>
          </mxGeometry>
        </mxCell>
        <mxCell id="kdA-taJ_aWkf9tYC6nDx-36" value="" style="endArrow=none;html=1;rounded=0;" parent="1" edge="1">
          <mxGeometry width="50" height="50" relative="1" as="geometry">
            <mxPoint x="960" y="200" as="sourcePoint" />
            <mxPoint x="1120" y="200" as="targetPoint" />
            <Array as="points">
              <mxPoint x="1040" y="200" />
              <mxPoint x="1040" y="160" />
              <mxPoint x="1120" y="160" />
            </Array>
          </mxGeometry>
        </mxCell>
        <mxCell id="kdA-taJ_aWkf9tYC6nDx-37" value="" style="endArrow=none;html=1;rounded=0;" parent="1" edge="1">
          <mxGeometry width="50" height="50" relative="1" as="geometry">
            <mxPoint x="1120" y="200" as="sourcePoint" />
            <mxPoint x="1280" y="200" as="targetPoint" />
            <Array as="points">
              <mxPoint x="1200" y="200" />
              <mxPoint x="1200" y="160" />
              <mxPoint x="1280" y="160" />
            </Array>
          </mxGeometry>
        </mxCell>
        <mxCell id="kdA-taJ_aWkf9tYC6nDx-38" value="" style="endArrow=none;html=1;rounded=0;" parent="1" edge="1">
          <mxGeometry width="50" height="50" relative="1" as="geometry">
            <mxPoint x="1280" y="200" as="sourcePoint" />
            <mxPoint x="1440" y="200" as="targetPoint" />
            <Array as="points">
              <mxPoint x="1360" y="200" />
              <mxPoint x="1360" y="160" />
              <mxPoint x="1440" y="160" />
            </Array>
          </mxGeometry>
        </mxCell>
        <mxCell id="kdA-taJ_aWkf9tYC6nDx-39" value="" style="endArrow=none;html=1;rounded=0;" parent="1" edge="1">
          <mxGeometry width="50" height="50" relative="1" as="geometry">
            <mxPoint x="1440" y="200" as="sourcePoint" />
            <mxPoint x="1600" y="200" as="targetPoint" />
            <Array as="points">
              <mxPoint x="1520" y="200" />
              <mxPoint x="1520" y="160" />
              <mxPoint x="1600" y="160" />
            </Array>
          </mxGeometry>
        </mxCell>
        <mxCell id="kdA-taJ_aWkf9tYC6nDx-44" value="" style="endArrow=none;html=1;rounded=0;" parent="1" edge="1">
          <mxGeometry width="50" height="50" relative="1" as="geometry">
            <mxPoint x="1051" y="280" as="sourcePoint" />
            <mxPoint x="1231" y="280" as="targetPoint" />
            <Array as="points">
              <mxPoint x="1141" y="280" />
              <mxPoint x="1141" y="240" />
              <mxPoint x="1231" y="240" />
            </Array>
          </mxGeometry>
        </mxCell>
        <mxCell id="kdA-taJ_aWkf9tYC6nDx-45" value="" style="endArrow=none;html=1;rounded=0;" parent="1" edge="1">
          <mxGeometry width="50" height="50" relative="1" as="geometry">
            <mxPoint x="1231" y="280" as="sourcePoint" />
            <mxPoint x="1411" y="280" as="targetPoint" />
            <Array as="points">
              <mxPoint x="1321" y="280" />
              <mxPoint x="1321" y="240" />
              <mxPoint x="1411" y="240" />
            </Array>
          </mxGeometry>
        </mxCell>
        <mxCell id="kdA-taJ_aWkf9tYC6nDx-46" value="" style="endArrow=none;html=1;rounded=0;" parent="1" edge="1">
          <mxGeometry width="50" height="50" relative="1" as="geometry">
            <mxPoint x="1410" y="280" as="sourcePoint" />
            <mxPoint x="1590" y="280" as="targetPoint" />
            <Array as="points">
              <mxPoint x="1500" y="280" />
              <mxPoint x="1500" y="240" />
              <mxPoint x="1590" y="240" />
            </Array>
          </mxGeometry>
        </mxCell>
        <mxCell id="kdA-taJ_aWkf9tYC6nDx-47" value="" style="endArrow=none;html=1;rounded=0;" parent="1" edge="1">
          <mxGeometry width="50" height="50" relative="1" as="geometry">
            <mxPoint x="150" y="360" as="sourcePoint" />
            <mxPoint x="1750" y="320" as="targetPoint" />
            <Array as="points">
              <mxPoint x="240" y="360" />
              <mxPoint x="240" y="320" />
              <mxPoint x="960" y="320" />
              <mxPoint x="960" y="360" />
              <mxPoint x="1680" y="360" />
              <mxPoint x="1680" y="320" />
            </Array>
          </mxGeometry>
        </mxCell>
        <mxCell id="kdA-taJ_aWkf9tYC6nDx-48" value="" style="endArrow=none;dashed=1;html=1;rounded=0;fillColor=#f8cecc;strokeColor=#b85450;strokeWidth=2;" parent="1" edge="1">
          <mxGeometry width="50" height="50" relative="1" as="geometry">
            <mxPoint x="240" y="360" as="sourcePoint" />
            <mxPoint x="240" y="160" as="targetPoint" />
          </mxGeometry>
        </mxCell>
        <mxCell id="kdA-taJ_aWkf9tYC6nDx-49" value="" style="endArrow=none;html=1;rounded=0;" parent="1" edge="1">
          <mxGeometry width="50" height="50" relative="1" as="geometry">
            <mxPoint x="1600" y="200" as="sourcePoint" />
            <mxPoint x="1760" y="200" as="targetPoint" />
            <Array as="points">
              <mxPoint x="1680" y="200" />
              <mxPoint x="1680" y="160" />
              <mxPoint x="1760" y="160" />
            </Array>
          </mxGeometry>
        </mxCell>
        <mxCell id="kdA-taJ_aWkf9tYC6nDx-50" value="" style="endArrow=none;html=1;rounded=0;" parent="1" edge="1">
          <mxGeometry width="50" height="50" relative="1" as="geometry">
            <mxPoint x="1590" y="280" as="sourcePoint" />
            <mxPoint x="1750" y="240" as="targetPoint" />
            <Array as="points">
              <mxPoint x="1680" y="280" />
              <mxPoint x="1680" y="240" />
              <mxPoint x="1720" y="240" />
            </Array>
          </mxGeometry>
        </mxCell>
        <mxCell id="kdA-taJ_aWkf9tYC6nDx-51" value="" style="endArrow=none;dashed=1;html=1;rounded=0;fillColor=#f8cecc;strokeColor=#b85450;strokeWidth=2;" parent="1" edge="1">
          <mxGeometry width="50" height="50" relative="1" as="geometry">
            <mxPoint x="420" y="360" as="sourcePoint" />
            <mxPoint x="420" y="160" as="targetPoint" />
          </mxGeometry>
        </mxCell>
        <mxCell id="kdA-taJ_aWkf9tYC6nDx-52" value="" style="endArrow=none;dashed=1;html=1;rounded=0;fillColor=#f8cecc;strokeColor=#b85450;strokeWidth=2;" parent="1" edge="1">
          <mxGeometry width="50" height="50" relative="1" as="geometry">
            <mxPoint x="600" y="360" as="sourcePoint" />
            <mxPoint x="600" y="160" as="targetPoint" />
          </mxGeometry>
        </mxCell>
        <mxCell id="kdA-taJ_aWkf9tYC6nDx-53" value="" style="endArrow=none;dashed=1;html=1;rounded=0;fillColor=#f8cecc;strokeColor=#b85450;strokeWidth=2;" parent="1" edge="1">
          <mxGeometry width="50" height="50" relative="1" as="geometry">
            <mxPoint x="780" y="360" as="sourcePoint" />
            <mxPoint x="780" y="160" as="targetPoint" />
          </mxGeometry>
        </mxCell>
        <mxCell id="kdA-taJ_aWkf9tYC6nDx-54" value="" style="endArrow=none;dashed=1;html=1;rounded=0;fillColor=#f8cecc;strokeColor=#b85450;strokeWidth=2;" parent="1" edge="1">
          <mxGeometry width="50" height="50" relative="1" as="geometry">
            <mxPoint x="960" y="360" as="sourcePoint" />
            <mxPoint x="960" y="160" as="targetPoint" />
          </mxGeometry>
        </mxCell>
        <mxCell id="gFEzy7Q-jeZhdHL1lZaV-1" value="" style="endArrow=classic;startArrow=classic;html=1;rounded=0;strokeWidth=0;fontStyle=1" parent="1" edge="1">
          <mxGeometry width="50" height="50" relative="1" as="geometry">
            <mxPoint x="400" y="120" as="sourcePoint" />
            <mxPoint x="420" y="120" as="targetPoint" />
            <Array as="points">
              <mxPoint x="404" y="120" />
            </Array>
          </mxGeometry>
        </mxCell>
        <mxCell id="gFEzy7Q-jeZhdHL1lZaV-6" value="" style="endArrow=none;dashed=1;html=1;rounded=0;strokeWidth=1;" parent="1" edge="1">
          <mxGeometry width="50" height="50" relative="1" as="geometry">
            <mxPoint x="400" y="280" as="sourcePoint" />
            <mxPoint x="400" y="120" as="targetPoint" />
          </mxGeometry>
        </mxCell>
        <mxCell id="gFEzy7Q-jeZhdHL1lZaV-7" value="" style="endArrow=none;dashed=1;html=1;rounded=0;strokeWidth=1;" parent="1" edge="1">
          <mxGeometry width="50" height="50" relative="1" as="geometry">
            <mxPoint x="420" y="280" as="sourcePoint" />
            <mxPoint x="420" y="120" as="targetPoint" />
          </mxGeometry>
        </mxCell>
        <mxCell id="gFEzy7Q-jeZhdHL1lZaV-8" value="" style="endArrow=none;html=1;rounded=0;" parent="1" edge="1">
          <mxGeometry width="50" height="50" relative="1" as="geometry">
            <mxPoint x="160" y="480" as="sourcePoint" />
            <mxPoint x="340" y="480" as="targetPoint" />
            <Array as="points">
              <mxPoint x="260" y="480" />
              <mxPoint x="260" y="440" />
              <mxPoint x="340" y="440" />
            </Array>
          </mxGeometry>
        </mxCell>
        <mxCell id="gFEzy7Q-jeZhdHL1lZaV-9" value="" style="endArrow=none;dashed=1;html=1;rounded=0;fillColor=#f8cecc;strokeColor=#b85450;strokeWidth=2;" parent="1" edge="1">
          <mxGeometry width="50" height="50" relative="1" as="geometry">
            <mxPoint x="1140" y="360" as="sourcePoint" />
            <mxPoint x="1140" y="160" as="targetPoint" />
          </mxGeometry>
        </mxCell>
        <mxCell id="gFEzy7Q-jeZhdHL1lZaV-10" value="" style="endArrow=none;dashed=1;html=1;rounded=0;fillColor=#f8cecc;strokeColor=#b85450;strokeWidth=2;" parent="1" edge="1">
          <mxGeometry width="50" height="50" relative="1" as="geometry">
            <mxPoint x="1320" y="360" as="sourcePoint" />
            <mxPoint x="1320" y="160" as="targetPoint" />
          </mxGeometry>
        </mxCell>
        <mxCell id="gFEzy7Q-jeZhdHL1lZaV-11" value="" style="endArrow=none;dashed=1;html=1;rounded=0;fillColor=#f8cecc;strokeColor=#b85450;" parent="1" edge="1">
          <mxGeometry width="50" height="50" relative="1" as="geometry">
            <mxPoint x="1510" y="360" as="sourcePoint" />
            <mxPoint x="1510" y="160" as="targetPoint" />
          </mxGeometry>
        </mxCell>
        <mxCell id="gFEzy7Q-jeZhdHL1lZaV-12" value="" style="endArrow=none;dashed=1;html=1;rounded=0;fillColor=#f8cecc;strokeColor=#b85450;" parent="1" edge="1">
          <mxGeometry width="50" height="50" relative="1" as="geometry">
            <mxPoint x="1690" y="360" as="sourcePoint" />
            <mxPoint x="1690" y="160" as="targetPoint" />
          </mxGeometry>
        </mxCell>
        <mxCell id="gFEzy7Q-jeZhdHL1lZaV-13" value="" style="endArrow=none;html=1;rounded=0;" parent="1" edge="1">
          <mxGeometry width="50" height="50" relative="1" as="geometry">
            <mxPoint x="340" y="480" as="sourcePoint" />
            <mxPoint x="500" y="480" as="targetPoint" />
            <Array as="points">
              <mxPoint x="420" y="480" />
              <mxPoint x="420" y="440" />
              <mxPoint x="500" y="440" />
            </Array>
          </mxGeometry>
        </mxCell>
        <mxCell id="gFEzy7Q-jeZhdHL1lZaV-14" value="" style="endArrow=none;html=1;rounded=0;" parent="1" edge="1">
          <mxGeometry width="50" height="50" relative="1" as="geometry">
            <mxPoint x="500" y="480" as="sourcePoint" />
            <mxPoint x="660" y="480" as="targetPoint" />
            <Array as="points">
              <mxPoint x="580" y="480" />
              <mxPoint x="580" y="440" />
              <mxPoint x="660" y="440" />
            </Array>
          </mxGeometry>
        </mxCell>
        <mxCell id="gFEzy7Q-jeZhdHL1lZaV-15" value="" style="endArrow=none;html=1;rounded=0;" parent="1" edge="1">
          <mxGeometry width="50" height="50" relative="1" as="geometry">
            <mxPoint x="660" y="480" as="sourcePoint" />
            <mxPoint x="820" y="480" as="targetPoint" />
            <Array as="points">
              <mxPoint x="740" y="480" />
              <mxPoint x="740" y="440" />
              <mxPoint x="820" y="440" />
            </Array>
          </mxGeometry>
        </mxCell>
        <mxCell id="gFEzy7Q-jeZhdHL1lZaV-16" value="" style="endArrow=none;html=1;rounded=0;" parent="1" edge="1">
          <mxGeometry width="50" height="50" relative="1" as="geometry">
            <mxPoint x="820" y="480" as="sourcePoint" />
            <mxPoint x="980" y="480" as="targetPoint" />
            <Array as="points">
              <mxPoint x="900" y="480" />
              <mxPoint x="900" y="440" />
              <mxPoint x="980" y="440" />
            </Array>
          </mxGeometry>
        </mxCell>
        <mxCell id="gFEzy7Q-jeZhdHL1lZaV-17" value="" style="endArrow=none;html=1;rounded=0;" parent="1" edge="1">
          <mxGeometry width="50" height="50" relative="1" as="geometry">
            <mxPoint x="980" y="480" as="sourcePoint" />
            <mxPoint x="1140" y="480" as="targetPoint" />
            <Array as="points">
              <mxPoint x="1060" y="480" />
              <mxPoint x="1060" y="440" />
              <mxPoint x="1140" y="440" />
            </Array>
          </mxGeometry>
        </mxCell>
        <mxCell id="gFEzy7Q-jeZhdHL1lZaV-18" value="" style="endArrow=none;html=1;rounded=0;" parent="1" edge="1">
          <mxGeometry width="50" height="50" relative="1" as="geometry">
            <mxPoint x="160" y="560" as="sourcePoint" />
            <mxPoint x="330" y="560" as="targetPoint" />
            <Array as="points">
              <mxPoint x="240" y="560" />
              <mxPoint x="240" y="520" />
              <mxPoint x="330" y="520" />
            </Array>
          </mxGeometry>
        </mxCell>
        <mxCell id="gFEzy7Q-jeZhdHL1lZaV-19" value="" style="endArrow=none;html=1;rounded=0;" parent="1" edge="1">
          <mxGeometry width="50" height="50" relative="1" as="geometry">
            <mxPoint x="330" y="560" as="sourcePoint" />
            <mxPoint x="510" y="560" as="targetPoint" />
            <Array as="points">
              <mxPoint x="420" y="560" />
              <mxPoint x="420" y="520" />
              <mxPoint x="510" y="520" />
            </Array>
          </mxGeometry>
        </mxCell>
        <mxCell id="gFEzy7Q-jeZhdHL1lZaV-20" value="" style="endArrow=none;html=1;rounded=0;" parent="1" edge="1">
          <mxGeometry width="50" height="50" relative="1" as="geometry">
            <mxPoint x="510" y="560" as="sourcePoint" />
            <mxPoint x="690" y="560" as="targetPoint" />
            <Array as="points">
              <mxPoint x="600" y="560" />
              <mxPoint x="600" y="520" />
              <mxPoint x="690" y="520" />
            </Array>
          </mxGeometry>
        </mxCell>
        <mxCell id="gFEzy7Q-jeZhdHL1lZaV-21" value="" style="endArrow=none;html=1;rounded=0;" parent="1" edge="1">
          <mxGeometry width="50" height="50" relative="1" as="geometry">
            <mxPoint x="690" y="560" as="sourcePoint" />
            <mxPoint x="870" y="560" as="targetPoint" />
            <Array as="points">
              <mxPoint x="780" y="560" />
              <mxPoint x="780" y="520" />
              <mxPoint x="870" y="520" />
            </Array>
          </mxGeometry>
        </mxCell>
        <mxCell id="gFEzy7Q-jeZhdHL1lZaV-22" value="" style="endArrow=none;html=1;rounded=0;" parent="1" edge="1">
          <mxGeometry width="50" height="50" relative="1" as="geometry">
            <mxPoint x="870" y="560" as="sourcePoint" />
            <mxPoint x="1050" y="560" as="targetPoint" />
            <Array as="points">
              <mxPoint x="960" y="560" />
              <mxPoint x="960" y="520" />
              <mxPoint x="1050" y="520" />
            </Array>
          </mxGeometry>
        </mxCell>
        <mxCell id="gFEzy7Q-jeZhdHL1lZaV-23" value="" style="endArrow=none;html=1;rounded=0;" parent="1" edge="1">
          <mxGeometry width="50" height="50" relative="1" as="geometry">
            <mxPoint x="1051" y="560" as="sourcePoint" />
            <mxPoint x="1231" y="560" as="targetPoint" />
            <Array as="points">
              <mxPoint x="1141" y="560" />
              <mxPoint x="1141" y="520" />
              <mxPoint x="1231" y="520" />
            </Array>
          </mxGeometry>
        </mxCell>
        <mxCell id="gFEzy7Q-jeZhdHL1lZaV-24" value="" style="endArrow=none;html=1;rounded=0;" parent="1" edge="1">
          <mxGeometry width="50" height="50" relative="1" as="geometry">
            <mxPoint x="1140" y="480" as="sourcePoint" />
            <mxPoint x="1300" y="480" as="targetPoint" />
            <Array as="points">
              <mxPoint x="1220" y="480" />
              <mxPoint x="1220" y="440" />
              <mxPoint x="1300" y="440" />
            </Array>
          </mxGeometry>
        </mxCell>
        <mxCell id="gFEzy7Q-jeZhdHL1lZaV-25" value="" style="endArrow=none;html=1;rounded=0;" parent="1" edge="1">
          <mxGeometry width="50" height="50" relative="1" as="geometry">
            <mxPoint x="1231" y="560" as="sourcePoint" />
            <mxPoint x="1411" y="560" as="targetPoint" />
            <Array as="points">
              <mxPoint x="1321" y="560" />
              <mxPoint x="1321" y="520" />
              <mxPoint x="1411" y="520" />
            </Array>
          </mxGeometry>
        </mxCell>
        <mxCell id="gFEzy7Q-jeZhdHL1lZaV-26" value="" style="endArrow=none;html=1;rounded=0;strokeWidth=1;" parent="1" edge="1">
          <mxGeometry width="50" height="50" relative="1" as="geometry">
            <mxPoint x="160" y="640" as="sourcePoint" />
            <mxPoint x="1490" y="640" as="targetPoint" />
            <Array as="points">
              <mxPoint x="240" y="640" />
              <mxPoint x="420" y="640" />
              <mxPoint x="420" y="600" />
              <mxPoint x="1140" y="600" />
              <mxPoint x="1140" y="640" />
            </Array>
          </mxGeometry>
        </mxCell>
        <mxCell id="gFEzy7Q-jeZhdHL1lZaV-27" value="" style="endArrow=none;dashed=1;html=1;rounded=0;fillColor=#f8cecc;strokeColor=#b85450;strokeWidth=2;" parent="1" edge="1">
          <mxGeometry width="50" height="50" relative="1" as="geometry">
            <mxPoint x="240" y="640" as="sourcePoint" />
            <mxPoint x="240" y="440" as="targetPoint" />
          </mxGeometry>
        </mxCell>
        <mxCell id="gFEzy7Q-jeZhdHL1lZaV-28" value="" style="endArrow=none;dashed=1;html=1;rounded=0;fillColor=#f8cecc;strokeColor=#b85450;strokeWidth=2;" parent="1" edge="1">
          <mxGeometry width="50" height="50" relative="1" as="geometry">
            <mxPoint x="420" y="640" as="sourcePoint" />
            <mxPoint x="420" y="440" as="targetPoint" />
          </mxGeometry>
        </mxCell>
        <mxCell id="gFEzy7Q-jeZhdHL1lZaV-29" value="" style="endArrow=none;dashed=1;html=1;rounded=0;fillColor=#f8cecc;strokeColor=#b85450;strokeWidth=2;" parent="1" edge="1">
          <mxGeometry width="50" height="50" relative="1" as="geometry">
            <mxPoint x="600" y="640" as="sourcePoint" />
            <mxPoint x="600" y="440" as="targetPoint" />
          </mxGeometry>
        </mxCell>
        <mxCell id="gFEzy7Q-jeZhdHL1lZaV-30" value="" style="endArrow=none;dashed=1;html=1;rounded=0;fillColor=#f8cecc;strokeColor=#b85450;strokeWidth=2;" parent="1" edge="1">
          <mxGeometry width="50" height="50" relative="1" as="geometry">
            <mxPoint x="780" y="640" as="sourcePoint" />
            <mxPoint x="780" y="440" as="targetPoint" />
          </mxGeometry>
        </mxCell>
        <mxCell id="gFEzy7Q-jeZhdHL1lZaV-31" value="" style="endArrow=none;dashed=1;html=1;rounded=0;fillColor=#f8cecc;strokeColor=#b85450;strokeWidth=2;" parent="1" edge="1">
          <mxGeometry width="50" height="50" relative="1" as="geometry">
            <mxPoint x="960" y="640" as="sourcePoint" />
            <mxPoint x="960" y="440" as="targetPoint" />
          </mxGeometry>
        </mxCell>
        <mxCell id="gFEzy7Q-jeZhdHL1lZaV-32" value="" style="endArrow=none;dashed=1;html=1;rounded=0;fillColor=#f8cecc;strokeColor=#b85450;strokeWidth=2;" parent="1" edge="1">
          <mxGeometry width="50" height="50" relative="1" as="geometry">
            <mxPoint x="1140" y="640" as="sourcePoint" />
            <mxPoint x="1140" y="440" as="targetPoint" />
          </mxGeometry>
        </mxCell>
        <mxCell id="gFEzy7Q-jeZhdHL1lZaV-33" value="" style="endArrow=none;dashed=1;html=1;rounded=0;fillColor=#f8cecc;strokeColor=#b85450;strokeWidth=2;" parent="1" edge="1">
          <mxGeometry width="50" height="50" relative="1" as="geometry">
            <mxPoint x="1320" y="640" as="sourcePoint" />
            <mxPoint x="1320" y="440" as="targetPoint" />
          </mxGeometry>
        </mxCell>
        <mxCell id="gFEzy7Q-jeZhdHL1lZaV-34" value="" style="endArrow=none;html=1;rounded=0;" parent="1" edge="1">
          <mxGeometry width="50" height="50" relative="1" as="geometry">
            <mxPoint x="1299" y="480" as="sourcePoint" />
            <mxPoint x="1459" y="480" as="targetPoint" />
            <Array as="points">
              <mxPoint x="1379" y="480" />
              <mxPoint x="1379" y="440" />
              <mxPoint x="1459" y="440" />
            </Array>
          </mxGeometry>
        </mxCell>
        <mxCell id="gFEzy7Q-jeZhdHL1lZaV-36" value="" style="endArrow=none;html=1;rounded=0;" parent="1" edge="1">
          <mxGeometry width="50" height="50" relative="1" as="geometry">
            <mxPoint x="160" y="880" as="sourcePoint" />
            <mxPoint x="320" y="880" as="targetPoint" />
            <Array as="points">
              <mxPoint x="240" y="880" />
              <mxPoint x="240" y="840" />
              <mxPoint x="320" y="840" />
            </Array>
          </mxGeometry>
        </mxCell>
        <mxCell id="gFEzy7Q-jeZhdHL1lZaV-37" value="" style="endArrow=none;html=1;rounded=0;" parent="1" edge="1">
          <mxGeometry width="50" height="50" relative="1" as="geometry">
            <mxPoint x="320" y="880" as="sourcePoint" />
            <mxPoint x="480" y="880" as="targetPoint" />
            <Array as="points">
              <mxPoint x="400" y="880" />
              <mxPoint x="400" y="840" />
              <mxPoint x="480" y="840" />
            </Array>
          </mxGeometry>
        </mxCell>
        <mxCell id="gFEzy7Q-jeZhdHL1lZaV-38" value="" style="endArrow=none;html=1;rounded=0;" parent="1" edge="1">
          <mxGeometry width="50" height="50" relative="1" as="geometry">
            <mxPoint x="480" y="880" as="sourcePoint" />
            <mxPoint x="640" y="880" as="targetPoint" />
            <Array as="points">
              <mxPoint x="560" y="880" />
              <mxPoint x="560" y="840" />
              <mxPoint x="640" y="840" />
            </Array>
          </mxGeometry>
        </mxCell>
        <mxCell id="gFEzy7Q-jeZhdHL1lZaV-43" value="" style="endArrow=none;html=1;rounded=0;" parent="1" edge="1">
          <mxGeometry width="50" height="50" relative="1" as="geometry">
            <mxPoint x="640" y="880" as="sourcePoint" />
            <mxPoint x="800" y="880" as="targetPoint" />
            <Array as="points">
              <mxPoint x="720" y="880" />
              <mxPoint x="720" y="840" />
              <mxPoint x="800" y="840" />
            </Array>
          </mxGeometry>
        </mxCell>
        <mxCell id="gFEzy7Q-jeZhdHL1lZaV-44" value="" style="endArrow=none;html=1;rounded=0;" parent="1" edge="1">
          <mxGeometry width="50" height="50" relative="1" as="geometry">
            <mxPoint x="800" y="880" as="sourcePoint" />
            <mxPoint x="960" y="880" as="targetPoint" />
            <Array as="points">
              <mxPoint x="880" y="880" />
              <mxPoint x="880" y="840" />
              <mxPoint x="960" y="840" />
            </Array>
          </mxGeometry>
        </mxCell>
        <mxCell id="gFEzy7Q-jeZhdHL1lZaV-45" value="" style="endArrow=none;html=1;rounded=0;" parent="1" edge="1">
          <mxGeometry width="50" height="50" relative="1" as="geometry">
            <mxPoint x="960" y="880" as="sourcePoint" />
            <mxPoint x="1120" y="880" as="targetPoint" />
            <Array as="points">
              <mxPoint x="1040" y="880" />
              <mxPoint x="1040" y="840" />
              <mxPoint x="1120" y="840" />
            </Array>
          </mxGeometry>
        </mxCell>
        <mxCell id="gFEzy7Q-jeZhdHL1lZaV-49" value="" style="endArrow=none;html=1;rounded=0;" parent="1" edge="1">
          <mxGeometry width="50" height="50" relative="1" as="geometry">
            <mxPoint x="160" y="960" as="sourcePoint" />
            <mxPoint x="340" y="960" as="targetPoint" />
            <Array as="points">
              <mxPoint x="260" y="960" />
              <mxPoint x="260" y="920" />
              <mxPoint x="340" y="920" />
            </Array>
          </mxGeometry>
        </mxCell>
        <mxCell id="gFEzy7Q-jeZhdHL1lZaV-50" value="" style="endArrow=none;html=1;rounded=0;" parent="1" edge="1">
          <mxGeometry width="50" height="50" relative="1" as="geometry">
            <mxPoint x="340" y="960" as="sourcePoint" />
            <mxPoint x="500" y="960" as="targetPoint" />
            <Array as="points">
              <mxPoint x="420" y="960" />
              <mxPoint x="420" y="920" />
              <mxPoint x="500" y="920" />
            </Array>
          </mxGeometry>
        </mxCell>
        <mxCell id="gFEzy7Q-jeZhdHL1lZaV-51" value="" style="endArrow=none;html=1;rounded=0;" parent="1" edge="1">
          <mxGeometry width="50" height="50" relative="1" as="geometry">
            <mxPoint x="500" y="960" as="sourcePoint" />
            <mxPoint x="660" y="960" as="targetPoint" />
            <Array as="points">
              <mxPoint x="580" y="960" />
              <mxPoint x="580" y="920" />
              <mxPoint x="660" y="920" />
            </Array>
          </mxGeometry>
        </mxCell>
        <mxCell id="gFEzy7Q-jeZhdHL1lZaV-52" value="" style="endArrow=none;html=1;rounded=0;" parent="1" edge="1">
          <mxGeometry width="50" height="50" relative="1" as="geometry">
            <mxPoint x="660" y="960" as="sourcePoint" />
            <mxPoint x="820" y="960" as="targetPoint" />
            <Array as="points">
              <mxPoint x="740" y="960" />
              <mxPoint x="740" y="920" />
              <mxPoint x="820" y="920" />
            </Array>
          </mxGeometry>
        </mxCell>
        <mxCell id="gFEzy7Q-jeZhdHL1lZaV-53" value="" style="endArrow=none;html=1;rounded=0;" parent="1" edge="1">
          <mxGeometry width="50" height="50" relative="1" as="geometry">
            <mxPoint x="820" y="960" as="sourcePoint" />
            <mxPoint x="980" y="960" as="targetPoint" />
            <Array as="points">
              <mxPoint x="900" y="960" />
              <mxPoint x="900" y="920" />
              <mxPoint x="980" y="920" />
            </Array>
          </mxGeometry>
        </mxCell>
        <mxCell id="gFEzy7Q-jeZhdHL1lZaV-54" value="" style="endArrow=none;html=1;rounded=0;" parent="1" edge="1">
          <mxGeometry width="50" height="50" relative="1" as="geometry">
            <mxPoint x="980" y="960" as="sourcePoint" />
            <mxPoint x="1140" y="960" as="targetPoint" />
            <Array as="points">
              <mxPoint x="1060" y="960" />
              <mxPoint x="1060" y="920" />
              <mxPoint x="1140" y="920" />
            </Array>
          </mxGeometry>
        </mxCell>
        <mxCell id="gFEzy7Q-jeZhdHL1lZaV-55" value="" style="endArrow=none;html=1;rounded=0;" parent="1" edge="1">
          <mxGeometry width="50" height="50" relative="1" as="geometry">
            <mxPoint x="1140" y="960" as="sourcePoint" />
            <mxPoint x="1300" y="960" as="targetPoint" />
            <Array as="points">
              <mxPoint x="1220" y="960" />
              <mxPoint x="1220" y="920" />
              <mxPoint x="1300" y="920" />
            </Array>
          </mxGeometry>
        </mxCell>
        <mxCell id="gFEzy7Q-jeZhdHL1lZaV-56" value="" style="endArrow=none;html=1;rounded=0;" parent="1" edge="1">
          <mxGeometry width="50" height="50" relative="1" as="geometry">
            <mxPoint x="1299" y="960" as="sourcePoint" />
            <mxPoint x="1459" y="960" as="targetPoint" />
            <Array as="points">
              <mxPoint x="1379" y="960" />
              <mxPoint x="1379" y="920" />
              <mxPoint x="1459" y="920" />
            </Array>
          </mxGeometry>
        </mxCell>
        <mxCell id="gFEzy7Q-jeZhdHL1lZaV-57" value="" style="endArrow=none;dashed=1;html=1;rounded=0;strokeWidth=1;" parent="1" edge="1">
          <mxGeometry width="50" height="50" relative="1" as="geometry">
            <mxPoint x="240" y="960" as="sourcePoint" />
            <mxPoint x="240" y="800" as="targetPoint" />
          </mxGeometry>
        </mxCell>
        <mxCell id="gFEzy7Q-jeZhdHL1lZaV-66" value="" style="endArrow=none;dashed=1;html=1;rounded=0;strokeWidth=1;" parent="1" edge="1">
          <mxGeometry width="50" height="50" relative="1" as="geometry">
            <mxPoint x="260" y="960" as="sourcePoint" />
            <mxPoint x="260" y="800" as="targetPoint" />
          </mxGeometry>
        </mxCell>
        <mxCell id="gFEzy7Q-jeZhdHL1lZaV-69" value="" style="endArrow=classic;startArrow=classic;html=1;rounded=0;strokeWidth=0;" parent="1" edge="1">
          <mxGeometry width="50" height="50" relative="1" as="geometry">
            <mxPoint x="240" y="800" as="sourcePoint" />
            <mxPoint x="260" y="800" as="targetPoint" />
            <Array as="points">
              <mxPoint x="250" y="800" />
            </Array>
          </mxGeometry>
        </mxCell>
        <mxCell id="gFEzy7Q-jeZhdHL1lZaV-70" value="" style="endArrow=none;html=1;rounded=0;" parent="1" edge="1">
          <mxGeometry width="50" height="50" relative="1" as="geometry">
            <mxPoint x="160" y="1120" as="sourcePoint" />
            <mxPoint x="1750.0000000000005" y="1080" as="targetPoint" />
            <Array as="points">
              <mxPoint x="240" y="1120" />
              <mxPoint x="240" y="1080" />
              <mxPoint x="960" y="1080" />
              <mxPoint x="960" y="1120" />
              <mxPoint x="1680" y="1120" />
              <mxPoint x="1680" y="1080" />
            </Array>
          </mxGeometry>
        </mxCell>
        <mxCell id="gFEzy7Q-jeZhdHL1lZaV-71" value="" style="endArrow=none;html=1;rounded=0;strokeWidth=1;" parent="1" edge="1">
          <mxGeometry width="50" height="50" relative="1" as="geometry">
            <mxPoint x="160" y="1200" as="sourcePoint" />
            <mxPoint x="1490" y="1200" as="targetPoint" />
            <Array as="points">
              <mxPoint x="240" y="1200" />
              <mxPoint x="420" y="1200" />
              <mxPoint x="420" y="1160" />
              <mxPoint x="1140" y="1160" />
              <mxPoint x="1140" y="1200" />
            </Array>
          </mxGeometry>
        </mxCell>
        <mxCell id="34TBfXtCDEXkfYJ-5ulG-4" value="" style="endArrow=classic;html=1;rounded=0;" parent="1" edge="1">
          <mxGeometry width="50" height="50" relative="1" as="geometry">
            <mxPoint x="160" y="210" as="sourcePoint" />
            <mxPoint x="160" y="130" as="targetPoint" />
          </mxGeometry>
        </mxCell>
        <mxCell id="34TBfXtCDEXkfYJ-5ulG-5" value="D" style="text;html=1;align=center;verticalAlign=middle;resizable=0;points=[];autosize=1;strokeColor=none;fillColor=none;" parent="1" vertex="1">
          <mxGeometry x="130" y="110" width="30" height="30" as="geometry" />
        </mxCell>
        <mxCell id="34TBfXtCDEXkfYJ-5ulG-6" value="T" style="text;html=1;align=center;verticalAlign=middle;resizable=0;points=[];autosize=1;strokeColor=none;fillColor=none;" parent="1" vertex="1">
          <mxGeometry x="130" y="210" width="30" height="30" as="geometry" />
        </mxCell>
        <mxCell id="34TBfXtCDEXkfYJ-5ulG-7" value="" style="endArrow=classic;html=1;rounded=0;" parent="1" edge="1">
          <mxGeometry width="50" height="50" relative="1" as="geometry">
            <mxPoint x="160" y="290" as="sourcePoint" />
            <mxPoint x="160" y="220" as="targetPoint" />
          </mxGeometry>
        </mxCell>
        <mxCell id="34TBfXtCDEXkfYJ-5ulG-8" value="" style="endArrow=classic;html=1;rounded=0;" parent="1" edge="1">
          <mxGeometry width="50" height="50" relative="1" as="geometry">
            <mxPoint x="160" y="370" as="sourcePoint" />
            <mxPoint x="160" y="300" as="targetPoint" />
          </mxGeometry>
        </mxCell>
        <mxCell id="34TBfXtCDEXkfYJ-5ulG-9" value="Q" style="text;html=1;align=center;verticalAlign=middle;resizable=0;points=[];autosize=1;strokeColor=none;fillColor=none;" parent="1" vertex="1">
          <mxGeometry x="130" y="290" width="30" height="30" as="geometry" />
        </mxCell>
        <mxCell id="34TBfXtCDEXkfYJ-5ulG-10" value="" style="endArrow=none;html=1;rounded=0;" parent="1" edge="1">
          <mxGeometry width="50" height="50" relative="1" as="geometry">
            <mxPoint x="240" y="200" as="sourcePoint" />
            <mxPoint x="1796.857142857143" y="200" as="targetPoint" />
          </mxGeometry>
        </mxCell>
        <mxCell id="34TBfXtCDEXkfYJ-5ulG-12" value="" style="endArrow=none;html=1;rounded=0;" parent="1" edge="1">
          <mxGeometry width="50" height="50" relative="1" as="geometry">
            <mxPoint x="150" y="280" as="sourcePoint" />
            <mxPoint x="1706.8571428571431" y="280" as="targetPoint" />
          </mxGeometry>
        </mxCell>
        <mxCell id="34TBfXtCDEXkfYJ-5ulG-13" value="" style="endArrow=none;html=1;rounded=0;" parent="1" edge="1">
          <mxGeometry width="50" height="50" relative="1" as="geometry">
            <mxPoint x="150" y="360" as="sourcePoint" />
            <mxPoint x="1706.8571428571431" y="360" as="targetPoint" />
          </mxGeometry>
        </mxCell>
        <mxCell id="34TBfXtCDEXkfYJ-5ulG-14" value="t+dt" style="text;html=1;align=center;verticalAlign=middle;resizable=0;points=[];autosize=1;strokeColor=none;fillColor=none;" parent="1" vertex="1">
          <mxGeometry x="390" y="95" width="40" height="30" as="geometry" />
        </mxCell>
        <mxCell id="34TBfXtCDEXkfYJ-5ulG-16" value="&lt;font style=&quot;font-size: 19px;&quot;&gt;Messung&lt;/font&gt;" style="rounded=0;whiteSpace=wrap;html=1;" parent="1" vertex="1">
          <mxGeometry x="400" y="1490" width="190" height="60" as="geometry" />
        </mxCell>
        <mxCell id="34TBfXtCDEXkfYJ-5ulG-19" style="edgeStyle=orthogonalEdgeStyle;rounded=0;orthogonalLoop=1;jettySize=auto;html=1;entryX=0;entryY=0.5;entryDx=0;entryDy=0;fontSize=19;" parent="1" source="34TBfXtCDEXkfYJ-5ulG-17" target="34TBfXtCDEXkfYJ-5ulG-16" edge="1">
          <mxGeometry relative="1" as="geometry" />
        </mxCell>
        <mxCell id="34TBfXtCDEXkfYJ-5ulG-17" value="sin(&lt;span style=&quot;background-color: rgb(255, 255, 255); font-family: Verdana, sans-serif; text-align: start;&quot;&gt;&lt;font style=&quot;font-size: 18px;&quot;&gt;ω&lt;/font&gt;&lt;/span&gt;t)" style="text;html=1;align=center;verticalAlign=middle;resizable=0;points=[];autosize=1;strokeColor=none;fillColor=none;fontSize=19;" parent="1" vertex="1">
          <mxGeometry x="160" y="1500" width="80" height="40" as="geometry" />
        </mxCell>
        <mxCell id="34TBfXtCDEXkfYJ-5ulG-20" value="" style="endArrow=classic;html=1;rounded=0;fontSize=19;exitX=1;exitY=0.5;exitDx=0;exitDy=0;" parent="1" source="34TBfXtCDEXkfYJ-5ulG-16" target="34TBfXtCDEXkfYJ-5ulG-21" edge="1">
          <mxGeometry width="50" height="50" relative="1" as="geometry">
            <mxPoint x="640" y="1510" as="sourcePoint" />
            <mxPoint x="680" y="1520" as="targetPoint" />
          </mxGeometry>
        </mxCell>
        <mxCell id="34TBfXtCDEXkfYJ-5ulG-21" value="" style="triangle;whiteSpace=wrap;html=1;fontSize=19;" parent="1" vertex="1">
          <mxGeometry x="650" y="1480" width="60" height="80" as="geometry" />
        </mxCell>
        <mxCell id="34TBfXtCDEXkfYJ-5ulG-22" value="i-u wandler" style="text;html=1;align=center;verticalAlign=middle;resizable=0;points=[];autosize=1;strokeColor=none;fillColor=none;fontSize=19;" parent="1" vertex="1">
          <mxGeometry x="620" y="1450" width="120" height="40" as="geometry" />
        </mxCell>
        <mxCell id="34TBfXtCDEXkfYJ-5ulG-24" value="sin(ωt+φ)" style="text;html=1;align=center;verticalAlign=middle;resizable=0;points=[];autosize=1;strokeColor=none;fillColor=none;fontSize=19;" parent="1" vertex="1">
          <mxGeometry x="750" y="1490" width="100" height="40" as="geometry" />
        </mxCell>
        <mxCell id="34TBfXtCDEXkfYJ-5ulG-25" value="" style="endArrow=classic;html=1;rounded=0;fontSize=19;entryX=0;entryY=0.5;entryDx=0;entryDy=0;" parent="1" target="34TBfXtCDEXkfYJ-5ulG-26" edge="1">
          <mxGeometry width="50" height="50" relative="1" as="geometry">
            <mxPoint x="320" y="1520" as="sourcePoint" />
            <mxPoint x="320" y="1590" as="targetPoint" />
          </mxGeometry>
        </mxCell>
        <mxCell id="34TBfXtCDEXkfYJ-5ulG-26" value="" style="triangle;whiteSpace=wrap;html=1;fontSize=19;direction=south;" parent="1" vertex="1">
          <mxGeometry x="280" y="1560" width="80" height="60" as="geometry" />
        </mxCell>
        <mxCell id="34TBfXtCDEXkfYJ-5ulG-27" value="" style="endArrow=none;html=1;rounded=0;fontSize=19;" parent="1" edge="1">
          <mxGeometry width="50" height="50" relative="1" as="geometry">
            <mxPoint x="710" y="1520" as="sourcePoint" />
            <mxPoint x="880" y="1520" as="targetPoint" />
          </mxGeometry>
        </mxCell>
        <mxCell id="34TBfXtCDEXkfYJ-5ulG-28" value="" style="endArrow=classic;html=1;rounded=0;fontSize=19;startArrow=none;" parent="1" source="34TBfXtCDEXkfYJ-5ulG-29" edge="1">
          <mxGeometry width="50" height="50" relative="1" as="geometry">
            <mxPoint x="880" y="1520" as="sourcePoint" />
            <mxPoint x="880" y="1600" as="targetPoint" />
          </mxGeometry>
        </mxCell>
        <mxCell id="34TBfXtCDEXkfYJ-5ulG-30" value="" style="swimlane;startSize=0;fontSize=19;" parent="1" vertex="1">
          <mxGeometry x="400" y="1720" width="80" height="120" as="geometry">
            <mxRectangle x="324" y="1710" width="50" height="40" as="alternateBounds" />
          </mxGeometry>
        </mxCell>
        <mxCell id="34TBfXtCDEXkfYJ-5ulG-36" value="D" style="text;html=1;align=center;verticalAlign=middle;resizable=0;points=[];autosize=1;strokeColor=none;fillColor=none;fontSize=19;" parent="34TBfXtCDEXkfYJ-5ulG-30" vertex="1">
          <mxGeometry width="40" height="40" as="geometry" />
        </mxCell>
        <mxCell id="34TBfXtCDEXkfYJ-5ulG-53" value="Q" style="text;html=1;align=center;verticalAlign=middle;resizable=0;points=[];autosize=1;strokeColor=none;fillColor=none;fontSize=19;" parent="34TBfXtCDEXkfYJ-5ulG-30" vertex="1">
          <mxGeometry x="40" width="40" height="40" as="geometry" />
        </mxCell>
        <mxCell id="34TBfXtCDEXkfYJ-5ulG-33" value="" style="swimlane;startSize=0;fontSize=19;" parent="1" vertex="1">
          <mxGeometry x="960" y="1720" width="80" height="120" as="geometry">
            <mxRectangle x="324" y="1710" width="50" height="40" as="alternateBounds" />
          </mxGeometry>
        </mxCell>
        <mxCell id="34TBfXtCDEXkfYJ-5ulG-54" value="Q" style="text;html=1;align=center;verticalAlign=middle;resizable=0;points=[];autosize=1;strokeColor=none;fillColor=none;fontSize=19;" parent="34TBfXtCDEXkfYJ-5ulG-33" vertex="1">
          <mxGeometry x="40" width="40" height="40" as="geometry" />
        </mxCell>
        <mxCell id="34TBfXtCDEXkfYJ-5ulG-37" value="D" style="text;html=1;align=center;verticalAlign=middle;resizable=0;points=[];autosize=1;strokeColor=none;fillColor=none;fontSize=19;" parent="34TBfXtCDEXkfYJ-5ulG-33" vertex="1">
          <mxGeometry width="40" height="40" as="geometry" />
        </mxCell>
        <mxCell id="34TBfXtCDEXkfYJ-5ulG-47" value="" style="endArrow=none;dashed=1;html=1;rounded=0;fontSize=19;entryX=1;entryY=0.5;entryDx=0;entryDy=0;" parent="34TBfXtCDEXkfYJ-5ulG-33" edge="1">
          <mxGeometry width="50" height="50" relative="1" as="geometry">
            <mxPoint x="10" y="59.57999999999993" as="sourcePoint" />
            <mxPoint x="80" y="59.57999999999993" as="targetPoint" />
          </mxGeometry>
        </mxCell>
        <mxCell id="34TBfXtCDEXkfYJ-5ulG-34" value="" style="edgeStyle=segmentEdgeStyle;endArrow=block;html=1;curved=0;rounded=0;endSize=8;startSize=8;fontSize=19;endFill=1;startArrow=none;" parent="1" source="34TBfXtCDEXkfYJ-5ulG-48" edge="1">
          <mxGeometry width="50" height="50" relative="1" as="geometry">
            <mxPoint x="290" y="1680" as="sourcePoint" />
            <mxPoint x="410" y="1780" as="targetPoint" />
            <Array as="points">
              <mxPoint x="280" y="1680" />
              <mxPoint x="280" y="1780" />
            </Array>
          </mxGeometry>
        </mxCell>
        <mxCell id="34TBfXtCDEXkfYJ-5ulG-35" value="" style="edgeStyle=segmentEdgeStyle;endArrow=block;html=1;curved=0;rounded=0;endSize=8;startSize=8;fontSize=19;endFill=1;" parent="1" edge="1">
          <mxGeometry width="50" height="50" relative="1" as="geometry">
            <mxPoint x="840" y="1680" as="sourcePoint" />
            <mxPoint x="970" y="1780" as="targetPoint" />
            <Array as="points">
              <mxPoint x="840" y="1780" />
            </Array>
          </mxGeometry>
        </mxCell>
        <mxCell id="34TBfXtCDEXkfYJ-5ulG-38" value="" style="endArrow=classic;html=1;rounded=0;fontSize=19;endFill=1;entryX=0;entryY=0.5;entryDx=0;entryDy=0;" parent="1" target="34TBfXtCDEXkfYJ-5ulG-29" edge="1">
          <mxGeometry width="50" height="50" relative="1" as="geometry">
            <mxPoint x="880" y="1520" as="sourcePoint" />
            <mxPoint x="980" y="1560" as="targetPoint" />
          </mxGeometry>
        </mxCell>
        <mxCell id="34TBfXtCDEXkfYJ-5ulG-29" value="" style="triangle;whiteSpace=wrap;html=1;fontSize=19;direction=south;" parent="1" vertex="1">
          <mxGeometry x="840" y="1560" width="80" height="60" as="geometry" />
        </mxCell>
        <mxCell id="34TBfXtCDEXkfYJ-5ulG-40" value="" style="endArrow=none;html=1;rounded=0;fontSize=19;startArrow=none;" parent="1" source="34TBfXtCDEXkfYJ-5ulG-48" edge="1">
          <mxGeometry width="50" height="50" relative="1" as="geometry">
            <mxPoint x="240" y="1680" as="sourcePoint" />
            <mxPoint x="840" y="1680" as="targetPoint" />
          </mxGeometry>
        </mxCell>
        <mxCell id="34TBfXtCDEXkfYJ-5ulG-44" value="" style="endArrow=none;html=1;rounded=0;fontSize=19;exitX=1;exitY=0.5;exitDx=0;exitDy=0;" parent="1" source="34TBfXtCDEXkfYJ-5ulG-26" edge="1">
          <mxGeometry width="50" height="50" relative="1" as="geometry">
            <mxPoint x="530" y="1760" as="sourcePoint" />
            <mxPoint x="400" y="1740" as="targetPoint" />
            <Array as="points">
              <mxPoint x="320" y="1740" />
            </Array>
          </mxGeometry>
        </mxCell>
        <mxCell id="34TBfXtCDEXkfYJ-5ulG-45" value="" style="endArrow=none;html=1;rounded=0;fontSize=19;exitX=1;exitY=0.5;exitDx=0;exitDy=0;" parent="1" edge="1">
          <mxGeometry width="50" height="50" relative="1" as="geometry">
            <mxPoint x="880" y="1620" as="sourcePoint" />
            <mxPoint x="960" y="1740" as="targetPoint" />
            <Array as="points">
              <mxPoint x="880" y="1740" />
            </Array>
          </mxGeometry>
        </mxCell>
        <mxCell id="34TBfXtCDEXkfYJ-5ulG-46" value="" style="endArrow=none;dashed=1;html=1;rounded=0;fontSize=19;entryX=1;entryY=0.5;entryDx=0;entryDy=0;" parent="1" target="34TBfXtCDEXkfYJ-5ulG-30" edge="1">
          <mxGeometry width="50" height="50" relative="1" as="geometry">
            <mxPoint x="410" y="1780" as="sourcePoint" />
            <mxPoint x="550" y="1710" as="targetPoint" />
          </mxGeometry>
        </mxCell>
        <mxCell id="34TBfXtCDEXkfYJ-5ulG-49" value="" style="edgeStyle=segmentEdgeStyle;endArrow=none;html=1;curved=0;rounded=0;endSize=8;startSize=8;fontSize=19;endFill=1;" parent="1" target="34TBfXtCDEXkfYJ-5ulG-48" edge="1">
          <mxGeometry width="50" height="50" relative="1" as="geometry">
            <mxPoint x="290" y="1680" as="sourcePoint" />
            <mxPoint x="410" y="1780" as="targetPoint" />
            <Array as="points" />
          </mxGeometry>
        </mxCell>
        <mxCell id="34TBfXtCDEXkfYJ-5ulG-50" value="" style="endArrow=none;html=1;rounded=0;fontSize=19;" parent="1" target="34TBfXtCDEXkfYJ-5ulG-48" edge="1">
          <mxGeometry width="50" height="50" relative="1" as="geometry">
            <mxPoint x="240" y="1680" as="sourcePoint" />
            <mxPoint x="880" y="1680" as="targetPoint" />
          </mxGeometry>
        </mxCell>
        <mxCell id="34TBfXtCDEXkfYJ-5ulG-48" value="" style="shape=waypoint;sketch=0;fillStyle=solid;size=6;pointerEvents=1;points=[];fillColor=none;resizable=0;rotatable=0;perimeter=centerPerimeter;snapToPoint=1;strokeWidth=1;fontSize=19;" parent="1" vertex="1">
          <mxGeometry x="270" y="1670" width="20" height="20" as="geometry" />
        </mxCell>
        <mxCell id="tNRlQZoy6p1RvLxcGZSy-50" value="" style="endArrow=none;html=1;rounded=0;" parent="1" edge="1">
          <mxGeometry width="50" height="50" relative="1" as="geometry">
            <mxPoint x="150" y="-80" as="sourcePoint" />
            <mxPoint x="320" y="-80" as="targetPoint" />
            <Array as="points">
              <mxPoint x="240" y="-80" />
              <mxPoint x="240" y="-120" />
              <mxPoint x="320" y="-120" />
            </Array>
          </mxGeometry>
        </mxCell>
        <mxCell id="tNRlQZoy6p1RvLxcGZSy-52" value="" style="endArrow=none;html=1;rounded=0;" parent="1" edge="1">
          <mxGeometry width="50" height="50" relative="1" as="geometry">
            <mxPoint x="480" y="-85" as="sourcePoint" />
            <mxPoint x="640.0000000000005" y="-85" as="targetPoint" />
            <Array as="points">
              <mxPoint x="560" y="-85" />
              <mxPoint x="560" y="-125" />
              <mxPoint x="640" y="-125" />
            </Array>
          </mxGeometry>
        </mxCell>
        <mxCell id="tNRlQZoy6p1RvLxcGZSy-53" value="" style="endArrow=none;html=1;rounded=0;" parent="1" edge="1">
          <mxGeometry width="50" height="50" relative="1" as="geometry">
            <mxPoint x="640.0000000000005" y="-85" as="sourcePoint" />
            <mxPoint x="799.9999999999995" y="-85" as="targetPoint" />
            <Array as="points">
              <mxPoint x="720" y="-85" />
              <mxPoint x="720" y="-125" />
              <mxPoint x="800" y="-125" />
            </Array>
          </mxGeometry>
        </mxCell>
        <mxCell id="tNRlQZoy6p1RvLxcGZSy-54" value="" style="endArrow=none;html=1;rounded=0;" parent="1" edge="1">
          <mxGeometry width="50" height="50" relative="1" as="geometry">
            <mxPoint x="799.9999999999995" y="-85" as="sourcePoint" />
            <mxPoint x="959.9999999999995" y="-85" as="targetPoint" />
            <Array as="points">
              <mxPoint x="880" y="-85" />
              <mxPoint x="880" y="-125" />
              <mxPoint x="960" y="-125" />
            </Array>
          </mxGeometry>
        </mxCell>
        <mxCell id="tNRlQZoy6p1RvLxcGZSy-55" value="" style="endArrow=none;html=1;rounded=0;" parent="1" edge="1">
          <mxGeometry width="50" height="50" relative="1" as="geometry">
            <mxPoint x="230" as="sourcePoint" />
            <mxPoint x="250" as="targetPoint" />
            <Array as="points">
              <mxPoint x="240" />
              <mxPoint x="240" y="-40" />
              <mxPoint x="250" y="-40" />
            </Array>
          </mxGeometry>
        </mxCell>
        <mxCell id="tNRlQZoy6p1RvLxcGZSy-57" value="" style="endArrow=none;html=1;rounded=0;" parent="1" edge="1">
          <mxGeometry width="50" height="50" relative="1" as="geometry">
            <mxPoint x="510.00000000000045" y="-5" as="sourcePoint" />
            <mxPoint x="689.9999999999995" y="-5" as="targetPoint" />
            <Array as="points">
              <mxPoint x="600" y="-5" />
              <mxPoint x="600" y="-45" />
              <mxPoint x="690" y="-45" />
            </Array>
          </mxGeometry>
        </mxCell>
        <mxCell id="tNRlQZoy6p1RvLxcGZSy-58" value="" style="endArrow=none;html=1;rounded=0;" parent="1" edge="1">
          <mxGeometry width="50" height="50" relative="1" as="geometry">
            <mxPoint x="689.9999999999995" y="-5" as="sourcePoint" />
            <mxPoint x="869.9999999999995" y="-5" as="targetPoint" />
            <Array as="points">
              <mxPoint x="780" y="-5" />
              <mxPoint x="780" y="-45" />
              <mxPoint x="870" y="-45" />
            </Array>
          </mxGeometry>
        </mxCell>
        <mxCell id="tNRlQZoy6p1RvLxcGZSy-59" value="" style="endArrow=none;html=1;rounded=0;" parent="1" edge="1">
          <mxGeometry width="50" height="50" relative="1" as="geometry">
            <mxPoint x="869.9999999999995" y="-5" as="sourcePoint" />
            <mxPoint x="1049.9999999999995" y="-5" as="targetPoint" />
            <Array as="points">
              <mxPoint x="960" y="-5" />
              <mxPoint x="960" y="-45" />
              <mxPoint x="1050" y="-45" />
            </Array>
          </mxGeometry>
        </mxCell>
        <mxCell id="tNRlQZoy6p1RvLxcGZSy-60" value="" style="endArrow=none;html=1;rounded=0;" parent="1" edge="1">
          <mxGeometry width="50" height="50" relative="1" as="geometry">
            <mxPoint x="959.9999999999995" y="-85" as="sourcePoint" />
            <mxPoint x="1119.9999999999995" y="-85" as="targetPoint" />
            <Array as="points">
              <mxPoint x="1040" y="-85" />
              <mxPoint x="1040" y="-125" />
              <mxPoint x="1120" y="-125" />
            </Array>
          </mxGeometry>
        </mxCell>
        <mxCell id="tNRlQZoy6p1RvLxcGZSy-61" value="" style="endArrow=none;html=1;rounded=0;" parent="1" edge="1">
          <mxGeometry width="50" height="50" relative="1" as="geometry">
            <mxPoint x="1119.9999999999995" y="-85" as="sourcePoint" />
            <mxPoint x="1279.9999999999995" y="-85" as="targetPoint" />
            <Array as="points">
              <mxPoint x="1200" y="-85" />
              <mxPoint x="1200" y="-125" />
              <mxPoint x="1280" y="-125" />
            </Array>
          </mxGeometry>
        </mxCell>
        <mxCell id="tNRlQZoy6p1RvLxcGZSy-62" value="" style="endArrow=none;html=1;rounded=0;" parent="1" edge="1">
          <mxGeometry width="50" height="50" relative="1" as="geometry">
            <mxPoint x="1279.9999999999995" y="-85" as="sourcePoint" />
            <mxPoint x="1439.9999999999995" y="-85" as="targetPoint" />
            <Array as="points">
              <mxPoint x="1360" y="-85" />
              <mxPoint x="1360" y="-125" />
              <mxPoint x="1440" y="-125" />
            </Array>
          </mxGeometry>
        </mxCell>
        <mxCell id="tNRlQZoy6p1RvLxcGZSy-63" value="" style="endArrow=none;html=1;rounded=0;" parent="1" edge="1">
          <mxGeometry width="50" height="50" relative="1" as="geometry">
            <mxPoint x="1439.9999999999995" y="-85" as="sourcePoint" />
            <mxPoint x="1599.9999999999995" y="-85" as="targetPoint" />
            <Array as="points">
              <mxPoint x="1520" y="-85" />
              <mxPoint x="1520" y="-125" />
              <mxPoint x="1600" y="-125" />
            </Array>
          </mxGeometry>
        </mxCell>
        <mxCell id="tNRlQZoy6p1RvLxcGZSy-64" value="" style="endArrow=none;html=1;rounded=0;" parent="1" edge="1">
          <mxGeometry width="50" height="50" relative="1" as="geometry">
            <mxPoint x="1051" y="-5" as="sourcePoint" />
            <mxPoint x="1231" y="-5" as="targetPoint" />
            <Array as="points">
              <mxPoint x="1141" y="-5" />
              <mxPoint x="1141" y="-45" />
              <mxPoint x="1231" y="-45" />
            </Array>
          </mxGeometry>
        </mxCell>
        <mxCell id="tNRlQZoy6p1RvLxcGZSy-65" value="" style="endArrow=none;html=1;rounded=0;" parent="1" edge="1">
          <mxGeometry width="50" height="50" relative="1" as="geometry">
            <mxPoint x="1231" y="-5" as="sourcePoint" />
            <mxPoint x="1411" y="-5" as="targetPoint" />
            <Array as="points">
              <mxPoint x="1321" y="-5" />
              <mxPoint x="1321" y="-45" />
              <mxPoint x="1411" y="-45" />
            </Array>
          </mxGeometry>
        </mxCell>
        <mxCell id="tNRlQZoy6p1RvLxcGZSy-66" value="" style="endArrow=none;html=1;rounded=0;" parent="1" edge="1">
          <mxGeometry width="50" height="50" relative="1" as="geometry">
            <mxPoint x="1409.9999999999995" y="-5" as="sourcePoint" />
            <mxPoint x="1589.9999999999995" y="-5" as="targetPoint" />
            <Array as="points">
              <mxPoint x="1500" y="-5" />
              <mxPoint x="1500" y="-45" />
              <mxPoint x="1590" y="-45" />
            </Array>
          </mxGeometry>
        </mxCell>
        <mxCell id="tNRlQZoy6p1RvLxcGZSy-68" value="" style="endArrow=none;dashed=1;html=1;rounded=0;fillColor=#f8cecc;strokeColor=#b85450;strokeWidth=2;" parent="1" edge="1">
          <mxGeometry width="50" height="50" relative="1" as="geometry">
            <mxPoint x="240" y="80" as="sourcePoint" />
            <mxPoint x="240" y="-120" as="targetPoint" />
          </mxGeometry>
        </mxCell>
        <mxCell id="tNRlQZoy6p1RvLxcGZSy-69" value="" style="endArrow=none;html=1;rounded=0;" parent="1" edge="1">
          <mxGeometry width="50" height="50" relative="1" as="geometry">
            <mxPoint x="1599.9999999999995" y="-85" as="sourcePoint" />
            <mxPoint x="1760" y="-85" as="targetPoint" />
            <Array as="points">
              <mxPoint x="1680" y="-85" />
              <mxPoint x="1680" y="-125" />
              <mxPoint x="1760" y="-125" />
            </Array>
          </mxGeometry>
        </mxCell>
        <mxCell id="tNRlQZoy6p1RvLxcGZSy-70" value="" style="endArrow=none;html=1;rounded=0;" parent="1" edge="1">
          <mxGeometry width="50" height="50" relative="1" as="geometry">
            <mxPoint x="1589.9999999999995" y="-5" as="sourcePoint" />
            <mxPoint x="1750" y="-45" as="targetPoint" />
            <Array as="points">
              <mxPoint x="1680" y="-5" />
              <mxPoint x="1680" y="-45" />
              <mxPoint x="1720" y="-45" />
            </Array>
          </mxGeometry>
        </mxCell>
        <mxCell id="tNRlQZoy6p1RvLxcGZSy-72" value="" style="endArrow=none;dashed=1;html=1;rounded=0;fillColor=#f8cecc;strokeColor=#b85450;strokeWidth=2;" parent="1" edge="1">
          <mxGeometry width="50" height="50" relative="1" as="geometry">
            <mxPoint x="600.0000000000005" y="75" as="sourcePoint" />
            <mxPoint x="600.0000000000005" y="-125" as="targetPoint" />
          </mxGeometry>
        </mxCell>
        <mxCell id="tNRlQZoy6p1RvLxcGZSy-73" value="" style="endArrow=none;dashed=1;html=1;rounded=0;fillColor=#f8cecc;strokeColor=#b85450;strokeWidth=2;" parent="1" edge="1">
          <mxGeometry width="50" height="50" relative="1" as="geometry">
            <mxPoint x="779.9999999999995" y="75" as="sourcePoint" />
            <mxPoint x="779.9999999999995" y="-125" as="targetPoint" />
          </mxGeometry>
        </mxCell>
        <mxCell id="tNRlQZoy6p1RvLxcGZSy-74" value="" style="endArrow=none;dashed=1;html=1;rounded=0;fillColor=#f8cecc;strokeColor=#b85450;strokeWidth=2;" parent="1" edge="1">
          <mxGeometry width="50" height="50" relative="1" as="geometry">
            <mxPoint x="959.9999999999995" y="75" as="sourcePoint" />
            <mxPoint x="959.9999999999995" y="-125" as="targetPoint" />
          </mxGeometry>
        </mxCell>
        <mxCell id="tNRlQZoy6p1RvLxcGZSy-78" value="" style="endArrow=none;dashed=1;html=1;rounded=0;fillColor=#f8cecc;strokeColor=#b85450;strokeWidth=2;" parent="1" edge="1">
          <mxGeometry width="50" height="50" relative="1" as="geometry">
            <mxPoint x="1139.9999999999995" y="75" as="sourcePoint" />
            <mxPoint x="1139.9999999999995" y="-125" as="targetPoint" />
          </mxGeometry>
        </mxCell>
        <mxCell id="tNRlQZoy6p1RvLxcGZSy-79" value="" style="endArrow=none;dashed=1;html=1;rounded=0;fillColor=#f8cecc;strokeColor=#b85450;strokeWidth=2;" parent="1" edge="1">
          <mxGeometry width="50" height="50" relative="1" as="geometry">
            <mxPoint x="1319.9999999999995" y="75" as="sourcePoint" />
            <mxPoint x="1319.9999999999995" y="-125" as="targetPoint" />
          </mxGeometry>
        </mxCell>
        <mxCell id="tNRlQZoy6p1RvLxcGZSy-80" value="" style="endArrow=none;dashed=1;html=1;rounded=0;fillColor=#f8cecc;strokeColor=#b85450;" parent="1" edge="1">
          <mxGeometry width="50" height="50" relative="1" as="geometry">
            <mxPoint x="1509.9999999999995" y="75" as="sourcePoint" />
            <mxPoint x="1509.9999999999995" y="-125" as="targetPoint" />
          </mxGeometry>
        </mxCell>
        <mxCell id="tNRlQZoy6p1RvLxcGZSy-81" value="" style="endArrow=none;dashed=1;html=1;rounded=0;fillColor=#f8cecc;strokeColor=#b85450;" parent="1" edge="1">
          <mxGeometry width="50" height="50" relative="1" as="geometry">
            <mxPoint x="1690" y="75" as="sourcePoint" />
            <mxPoint x="1690" y="-125" as="targetPoint" />
          </mxGeometry>
        </mxCell>
        <mxCell id="tNRlQZoy6p1RvLxcGZSy-82" value="" style="endArrow=classic;html=1;rounded=0;" parent="1" edge="1">
          <mxGeometry width="50" height="50" relative="1" as="geometry">
            <mxPoint x="160" y="-75" as="sourcePoint" />
            <mxPoint x="160" y="-155" as="targetPoint" />
          </mxGeometry>
        </mxCell>
        <mxCell id="tNRlQZoy6p1RvLxcGZSy-83" value="D" style="text;html=1;align=center;verticalAlign=middle;resizable=0;points=[];autosize=1;strokeColor=none;fillColor=none;" parent="1" vertex="1">
          <mxGeometry x="130" y="-175" width="30" height="30" as="geometry" />
        </mxCell>
        <mxCell id="tNRlQZoy6p1RvLxcGZSy-84" value="T" style="text;html=1;align=center;verticalAlign=middle;resizable=0;points=[];autosize=1;strokeColor=none;fillColor=none;" parent="1" vertex="1">
          <mxGeometry x="130" y="-75" width="30" height="30" as="geometry" />
        </mxCell>
        <mxCell id="tNRlQZoy6p1RvLxcGZSy-85" value="" style="endArrow=classic;html=1;rounded=0;" parent="1" edge="1">
          <mxGeometry width="50" height="50" relative="1" as="geometry">
            <mxPoint x="160" y="5" as="sourcePoint" />
            <mxPoint x="160" y="-65" as="targetPoint" />
          </mxGeometry>
        </mxCell>
        <mxCell id="tNRlQZoy6p1RvLxcGZSy-86" value="" style="endArrow=classic;html=1;rounded=0;" parent="1" edge="1">
          <mxGeometry width="50" height="50" relative="1" as="geometry">
            <mxPoint x="160" y="85" as="sourcePoint" />
            <mxPoint x="160" y="15" as="targetPoint" />
          </mxGeometry>
        </mxCell>
        <mxCell id="tNRlQZoy6p1RvLxcGZSy-87" value="Q" style="text;html=1;align=center;verticalAlign=middle;resizable=0;points=[];autosize=1;strokeColor=none;fillColor=none;" parent="1" vertex="1">
          <mxGeometry x="130" y="5" width="30" height="30" as="geometry" />
        </mxCell>
        <mxCell id="tNRlQZoy6p1RvLxcGZSy-88" value="" style="endArrow=none;html=1;rounded=0;" parent="1" edge="1">
          <mxGeometry width="50" height="50" relative="1" as="geometry">
            <mxPoint x="240" y="-80" as="sourcePoint" />
            <mxPoint x="1796.8571428571431" y="-80" as="targetPoint" />
          </mxGeometry>
        </mxCell>
        <mxCell id="tNRlQZoy6p1RvLxcGZSy-89" value="" style="endArrow=none;html=1;rounded=0;" parent="1" edge="1">
          <mxGeometry width="50" height="50" relative="1" as="geometry">
            <mxPoint x="150" as="sourcePoint" />
            <mxPoint x="1706.8571428571431" as="targetPoint" />
          </mxGeometry>
        </mxCell>
        <mxCell id="tNRlQZoy6p1RvLxcGZSy-90" value="" style="endArrow=none;html=1;rounded=0;" parent="1" edge="1">
          <mxGeometry width="50" height="50" relative="1" as="geometry">
            <mxPoint x="150" y="80" as="sourcePoint" />
            <mxPoint x="1706.8571428571431" y="80" as="targetPoint" />
          </mxGeometry>
        </mxCell>
        <mxCell id="tNRlQZoy6p1RvLxcGZSy-92" value="" style="endArrow=none;html=1;rounded=0;" parent="1" edge="1">
          <mxGeometry width="50" height="50" relative="1" as="geometry">
            <mxPoint x="250" as="sourcePoint" />
            <mxPoint x="270" as="targetPoint" />
            <Array as="points">
              <mxPoint x="260" />
              <mxPoint x="260" y="-40" />
              <mxPoint x="270" y="-40" />
            </Array>
          </mxGeometry>
        </mxCell>
        <mxCell id="tNRlQZoy6p1RvLxcGZSy-93" value="" style="endArrow=none;html=1;rounded=0;" parent="1" edge="1">
          <mxGeometry width="50" height="50" relative="1" as="geometry">
            <mxPoint x="270" as="sourcePoint" />
            <mxPoint x="290" as="targetPoint" />
            <Array as="points">
              <mxPoint x="280" />
              <mxPoint x="280" y="-40" />
              <mxPoint x="290" y="-40" />
            </Array>
          </mxGeometry>
        </mxCell>
        <mxCell id="tNRlQZoy6p1RvLxcGZSy-94" value="" style="endArrow=none;html=1;rounded=0;" parent="1" edge="1">
          <mxGeometry width="50" height="50" relative="1" as="geometry">
            <mxPoint x="290" as="sourcePoint" />
            <mxPoint x="310" as="targetPoint" />
            <Array as="points">
              <mxPoint x="300" />
              <mxPoint x="300" y="-40" />
              <mxPoint x="310" y="-40" />
            </Array>
          </mxGeometry>
        </mxCell>
        <mxCell id="tNRlQZoy6p1RvLxcGZSy-95" value="" style="endArrow=none;html=1;rounded=0;" parent="1" edge="1">
          <mxGeometry width="50" height="50" relative="1" as="geometry">
            <mxPoint x="310" as="sourcePoint" />
            <mxPoint x="330" as="targetPoint" />
            <Array as="points">
              <mxPoint x="320" />
              <mxPoint x="320" y="-40" />
              <mxPoint x="330" y="-40" />
            </Array>
          </mxGeometry>
        </mxCell>
        <mxCell id="tNRlQZoy6p1RvLxcGZSy-96" value="" style="endArrow=none;html=1;rounded=0;" parent="1" edge="1">
          <mxGeometry width="50" height="50" relative="1" as="geometry">
            <mxPoint x="330" as="sourcePoint" />
            <mxPoint x="350" as="targetPoint" />
            <Array as="points">
              <mxPoint x="340" />
              <mxPoint x="340" y="-40" />
              <mxPoint x="350" y="-40" />
            </Array>
          </mxGeometry>
        </mxCell>
        <mxCell id="tNRlQZoy6p1RvLxcGZSy-97" value="" style="endArrow=none;dashed=1;html=1;rounded=0;fillColor=#f8cecc;strokeColor=#b85450;strokeWidth=2;" parent="1" edge="1">
          <mxGeometry width="50" height="50" relative="1" as="geometry">
            <mxPoint x="260" y="80" as="sourcePoint" />
            <mxPoint x="260" y="-120" as="targetPoint" />
          </mxGeometry>
        </mxCell>
        <mxCell id="tNRlQZoy6p1RvLxcGZSy-98" value="" style="endArrow=none;dashed=1;html=1;rounded=0;fillColor=#f8cecc;strokeColor=#b85450;strokeWidth=2;" parent="1" edge="1">
          <mxGeometry width="50" height="50" relative="1" as="geometry">
            <mxPoint x="280" y="80" as="sourcePoint" />
            <mxPoint x="280" y="-120" as="targetPoint" />
          </mxGeometry>
        </mxCell>
        <mxCell id="tNRlQZoy6p1RvLxcGZSy-99" value="" style="endArrow=none;dashed=1;html=1;rounded=0;fillColor=#f8cecc;strokeColor=#b85450;strokeWidth=2;" parent="1" edge="1">
          <mxGeometry width="50" height="50" relative="1" as="geometry">
            <mxPoint x="300" y="80" as="sourcePoint" />
            <mxPoint x="300" y="-120" as="targetPoint" />
          </mxGeometry>
        </mxCell>
        <mxCell id="tNRlQZoy6p1RvLxcGZSy-100" value="" style="endArrow=none;dashed=1;html=1;rounded=0;fillColor=#f8cecc;strokeColor=#b85450;strokeWidth=2;" parent="1" edge="1">
          <mxGeometry width="50" height="50" relative="1" as="geometry">
            <mxPoint x="319.77" y="80" as="sourcePoint" />
            <mxPoint x="319.77" y="-120" as="targetPoint" />
          </mxGeometry>
        </mxCell>
        <mxCell id="tNRlQZoy6p1RvLxcGZSy-101" value="" style="endArrow=none;dashed=1;html=1;rounded=0;fillColor=#f8cecc;strokeColor=#b85450;strokeWidth=2;" parent="1" edge="1">
          <mxGeometry width="50" height="50" relative="1" as="geometry">
            <mxPoint x="340" y="80" as="sourcePoint" />
            <mxPoint x="340" y="-120" as="targetPoint" />
          </mxGeometry>
        </mxCell>
        <mxCell id="tNRlQZoy6p1RvLxcGZSy-102" value="" style="endArrow=none;html=1;rounded=0;fontSize=19;fontColor=#000000;" parent="1" edge="1">
          <mxGeometry width="50" height="50" relative="1" as="geometry">
            <mxPoint x="240" y="80" as="sourcePoint" />
            <mxPoint x="350" y="80" as="targetPoint" />
            <Array as="points">
              <mxPoint x="240" y="40" />
              <mxPoint x="320" y="40" />
              <mxPoint x="320" y="80" />
            </Array>
          </mxGeometry>
        </mxCell>
        <mxCell id="tNRlQZoy6p1RvLxcGZSy-104" value="" style="swimlane;startSize=0;fontSize=19;fontColor=#000000;" parent="1" vertex="1">
          <mxGeometry x="360" y="1580" width="100" height="80" as="geometry">
            <mxRectangle x="120" y="1640" width="50" height="40" as="alternateBounds" />
          </mxGeometry>
        </mxCell>
        <mxCell id="tNRlQZoy6p1RvLxcGZSy-106" value="" style="endArrow=none;html=1;rounded=0;fontSize=19;fontColor=#000000;" parent="tNRlQZoy6p1RvLxcGZSy-104" edge="1">
          <mxGeometry width="50" height="50" relative="1" as="geometry">
            <mxPoint x="30" y="70" as="sourcePoint" />
            <mxPoint x="90" y="70" as="targetPoint" />
            <Array as="points">
              <mxPoint x="10" y="70" />
              <mxPoint x="30" y="70" />
              <mxPoint x="30" y="30" />
              <mxPoint x="50" y="30" />
              <mxPoint x="50" y="70" />
              <mxPoint x="70" y="70" />
              <mxPoint x="70" y="30" />
              <mxPoint x="90" y="30" />
              <mxPoint x="90" y="70" />
            </Array>
          </mxGeometry>
        </mxCell>
        <mxCell id="tNRlQZoy6p1RvLxcGZSy-110" value="" style="endArrow=none;dashed=1;html=1;rounded=0;fontSize=19;fontColor=#000000;" parent="tNRlQZoy6p1RvLxcGZSy-104" edge="1">
          <mxGeometry width="50" height="50" relative="1" as="geometry">
            <mxPoint x="49.82" y="70.00000000000045" as="sourcePoint" />
            <mxPoint x="49.82" y="10.000000000000455" as="targetPoint" />
          </mxGeometry>
        </mxCell>
        <mxCell id="tNRlQZoy6p1RvLxcGZSy-109" value="" style="endArrow=none;dashed=1;html=1;rounded=0;fontSize=19;fontColor=#000000;" parent="tNRlQZoy6p1RvLxcGZSy-104" edge="1">
          <mxGeometry width="50" height="50" relative="1" as="geometry">
            <mxPoint x="10" y="70" as="sourcePoint" />
            <mxPoint x="10" y="10" as="targetPoint" />
          </mxGeometry>
        </mxCell>
        <mxCell id="tNRlQZoy6p1RvLxcGZSy-111" value="" style="endArrow=classic;startArrow=classic;html=1;rounded=0;fontSize=19;fontColor=#000000;" parent="tNRlQZoy6p1RvLxcGZSy-104" edge="1">
          <mxGeometry width="50" height="50" relative="1" as="geometry">
            <mxPoint x="10" y="20" as="sourcePoint" />
            <mxPoint x="50" y="20" as="targetPoint" />
          </mxGeometry>
        </mxCell>
        <mxCell id="tNRlQZoy6p1RvLxcGZSy-123" value="" style="swimlane;startSize=0;fontSize=13;fontColor=#000000;" parent="1" vertex="1">
          <mxGeometry x="100" y="1640" width="140" height="80" as="geometry" />
        </mxCell>
        <mxCell id="tNRlQZoy6p1RvLxcGZSy-128" value="" style="endArrow=none;html=1;rounded=0;fontSize=13;fontColor=#000000;" parent="tNRlQZoy6p1RvLxcGZSy-123" edge="1">
          <mxGeometry width="50" height="50" relative="1" as="geometry">
            <mxPoint x="10" y="70" as="sourcePoint" />
            <mxPoint x="70.00000000000006" y="70" as="targetPoint" />
            <Array as="points">
              <mxPoint x="40" y="70" />
              <mxPoint x="40" y="30" />
              <mxPoint x="70" y="30" />
            </Array>
          </mxGeometry>
        </mxCell>
        <mxCell id="tNRlQZoy6p1RvLxcGZSy-130" value="" style="endArrow=none;dashed=1;html=1;rounded=0;fontSize=19;fontColor=#000000;" parent="tNRlQZoy6p1RvLxcGZSy-123" edge="1">
          <mxGeometry width="50" height="50" relative="1" as="geometry">
            <mxPoint x="10.000000000000057" y="70" as="sourcePoint" />
            <mxPoint x="10.000000000000057" y="10" as="targetPoint" />
          </mxGeometry>
        </mxCell>
        <mxCell id="tNRlQZoy6p1RvLxcGZSy-131" value="" style="endArrow=none;dashed=1;html=1;rounded=0;fontSize=19;fontColor=#000000;" parent="tNRlQZoy6p1RvLxcGZSy-123" edge="1">
          <mxGeometry width="50" height="50" relative="1" as="geometry">
            <mxPoint x="69.78999999999994" y="70.00000000000045" as="sourcePoint" />
            <mxPoint x="69.78999999999994" y="10.000000000000455" as="targetPoint" />
          </mxGeometry>
        </mxCell>
        <mxCell id="tNRlQZoy6p1RvLxcGZSy-132" value="" style="endArrow=classic;startArrow=classic;html=1;rounded=0;fontSize=19;fontColor=#000000;" parent="tNRlQZoy6p1RvLxcGZSy-123" edge="1">
          <mxGeometry width="50" height="50" relative="1" as="geometry">
            <mxPoint x="10.000000000000057" y="20" as="sourcePoint" />
            <mxPoint x="70" y="20" as="targetPoint" />
          </mxGeometry>
        </mxCell>
        <mxCell id="tNRlQZoy6p1RvLxcGZSy-129" value="" style="endArrow=none;html=1;rounded=0;fontSize=13;fontColor=#000000;" parent="tNRlQZoy6p1RvLxcGZSy-123" edge="1">
          <mxGeometry width="50" height="50" relative="1" as="geometry">
            <mxPoint x="70.00000000000006" y="70" as="sourcePoint" />
            <mxPoint x="130" y="70" as="targetPoint" />
            <Array as="points">
              <mxPoint x="100" y="70" />
              <mxPoint x="100" y="30" />
              <mxPoint x="130" y="30" />
            </Array>
          </mxGeometry>
        </mxCell>
        <mxCell id="tNRlQZoy6p1RvLxcGZSy-133" value="&lt;font style=&quot;font-size: 13px;&quot;&gt;T+dT&lt;/font&gt;" style="text;html=1;align=center;verticalAlign=middle;resizable=0;points=[];autosize=1;strokeColor=none;fillColor=none;fontSize=19;fontColor=#000000;" parent="tNRlQZoy6p1RvLxcGZSy-123" vertex="1">
          <mxGeometry x="15" y="-10" width="50" height="40" as="geometry" />
        </mxCell>
        <mxCell id="tNRlQZoy6p1RvLxcGZSy-134" value="" style="swimlane;startSize=0;fontSize=19;fontColor=#000000;" parent="1" vertex="1">
          <mxGeometry x="920" y="1580" width="100" height="80" as="geometry">
            <mxRectangle x="120" y="1640" width="50" height="40" as="alternateBounds" />
          </mxGeometry>
        </mxCell>
        <mxCell id="tNRlQZoy6p1RvLxcGZSy-136" value="" style="endArrow=none;dashed=1;html=1;rounded=0;fontSize=19;fontColor=#000000;" parent="tNRlQZoy6p1RvLxcGZSy-134" edge="1">
          <mxGeometry width="50" height="50" relative="1" as="geometry">
            <mxPoint x="49.82" y="70.00000000000045" as="sourcePoint" />
            <mxPoint x="49.82" y="10.000000000000455" as="targetPoint" />
          </mxGeometry>
        </mxCell>
        <mxCell id="tNRlQZoy6p1RvLxcGZSy-137" value="" style="endArrow=none;dashed=1;html=1;rounded=0;fontSize=19;fontColor=#000000;" parent="tNRlQZoy6p1RvLxcGZSy-134" edge="1">
          <mxGeometry width="50" height="50" relative="1" as="geometry">
            <mxPoint x="10" y="70" as="sourcePoint" />
            <mxPoint x="10" y="10" as="targetPoint" />
          </mxGeometry>
        </mxCell>
        <mxCell id="tNRlQZoy6p1RvLxcGZSy-138" value="" style="endArrow=classic;startArrow=classic;html=1;rounded=0;fontSize=19;fontColor=#000000;" parent="tNRlQZoy6p1RvLxcGZSy-134" edge="1">
          <mxGeometry width="50" height="50" relative="1" as="geometry">
            <mxPoint x="10" y="20" as="sourcePoint" />
            <mxPoint x="50" y="20" as="targetPoint" />
          </mxGeometry>
        </mxCell>
        <mxCell id="tNRlQZoy6p1RvLxcGZSy-145" value="" style="endArrow=none;html=1;rounded=0;fontSize=19;fontColor=#000000;strokeColor=#B3B3B3;" parent="tNRlQZoy6p1RvLxcGZSy-134" edge="1">
          <mxGeometry width="50" height="50" relative="1" as="geometry">
            <mxPoint x="30" y="70" as="sourcePoint" />
            <mxPoint x="90" y="70" as="targetPoint" />
            <Array as="points">
              <mxPoint x="10" y="70" />
              <mxPoint x="30" y="70" />
              <mxPoint x="30" y="30" />
              <mxPoint x="50" y="30" />
              <mxPoint x="50" y="70" />
              <mxPoint x="70" y="70" />
              <mxPoint x="70" y="30" />
              <mxPoint x="90" y="30" />
              <mxPoint x="90" y="70" />
            </Array>
          </mxGeometry>
        </mxCell>
        <mxCell id="tNRlQZoy6p1RvLxcGZSy-135" value="" style="endArrow=none;html=1;rounded=0;fontSize=19;fontColor=#000000;" parent="tNRlQZoy6p1RvLxcGZSy-134" edge="1">
          <mxGeometry width="50" height="50" relative="1" as="geometry">
            <mxPoint x="40" y="70" as="sourcePoint" />
            <mxPoint x="100" y="70" as="targetPoint" />
            <Array as="points">
              <mxPoint x="20" y="70" />
              <mxPoint x="40" y="70" />
              <mxPoint x="40" y="30" />
              <mxPoint x="60" y="30" />
              <mxPoint x="60" y="70" />
              <mxPoint x="80" y="70" />
              <mxPoint x="80" y="30" />
              <mxPoint x="100" y="30" />
              <mxPoint x="100" y="70" />
            </Array>
          </mxGeometry>
        </mxCell>
        <mxCell id="tNRlQZoy6p1RvLxcGZSy-147" value="" style="endArrow=none;dashed=1;html=1;rounded=0;fontSize=19;fontColor=#000000;" parent="tNRlQZoy6p1RvLxcGZSy-134" edge="1">
          <mxGeometry width="50" height="50" relative="1" as="geometry">
            <mxPoint x="69.99999999999989" y="70.00000000000045" as="sourcePoint" />
            <mxPoint x="69.99999999999989" y="10.000000000000455" as="targetPoint" />
          </mxGeometry>
        </mxCell>
        <mxCell id="tNRlQZoy6p1RvLxcGZSy-148" value="" style="endArrow=none;dashed=1;html=1;rounded=0;fontSize=19;fontColor=#000000;" parent="tNRlQZoy6p1RvLxcGZSy-134" edge="1">
          <mxGeometry width="50" height="50" relative="1" as="geometry">
            <mxPoint x="80" y="70.00000000000045" as="sourcePoint" />
            <mxPoint x="80" y="10.000000000000455" as="targetPoint" />
          </mxGeometry>
        </mxCell>
        <mxCell id="tNRlQZoy6p1RvLxcGZSy-154" value="&lt;p style=&quot;line-height: 120%;&quot;&gt;φ&lt;/p&gt;" style="text;html=1;align=center;verticalAlign=middle;resizable=0;points=[];autosize=1;strokeColor=none;fillColor=none;fontSize=13;fontColor=#000000;" parent="tNRlQZoy6p1RvLxcGZSy-134" vertex="1">
          <mxGeometry x="60" y="-20" width="30" height="60" as="geometry" />
        </mxCell>
        <mxCell id="tNRlQZoy6p1RvLxcGZSy-139" value="T" style="text;html=1;align=center;verticalAlign=middle;resizable=0;points=[];autosize=1;strokeColor=none;fillColor=none;fontSize=13;fontColor=#000000;" parent="1" vertex="1">
          <mxGeometry x="375" y="1575" width="30" height="30" as="geometry" />
        </mxCell>
        <mxCell id="tNRlQZoy6p1RvLxcGZSy-140" value="T" style="text;html=1;align=center;verticalAlign=middle;resizable=0;points=[];autosize=1;strokeColor=none;fillColor=none;fontSize=13;fontColor=#000000;" parent="1" vertex="1">
          <mxGeometry x="935" y="1575" width="30" height="30" as="geometry" />
        </mxCell>
        <mxCell id="tNRlQZoy6p1RvLxcGZSy-152" value="" style="endArrow=classic;html=1;rounded=0;strokeColor=#000000;fontSize=13;fontColor=#000000;" parent="1" edge="1">
          <mxGeometry width="50" height="50" relative="1" as="geometry">
            <mxPoint x="980" y="1600" as="sourcePoint" />
            <mxPoint x="990" y="1600" as="targetPoint" />
          </mxGeometry>
        </mxCell>
        <mxCell id="tNRlQZoy6p1RvLxcGZSy-153" value="" style="endArrow=classic;html=1;rounded=0;strokeColor=#000000;fontSize=13;fontColor=#000000;" parent="1" edge="1">
          <mxGeometry width="50" height="50" relative="1" as="geometry">
            <mxPoint x="1010" y="1600" as="sourcePoint" />
            <mxPoint x="1000" y="1600" as="targetPoint" />
          </mxGeometry>
        </mxCell>
        <mxCell id="tNRlQZoy6p1RvLxcGZSy-156" value="" style="endArrow=none;dashed=1;html=1;dashPattern=1 3;strokeWidth=2;rounded=0;strokeColor=#000000;fontSize=13;fontColor=#000000;entryX=0;entryY=0.5;entryDx=0;entryDy=0;" parent="1" target="tNRlQZoy6p1RvLxcGZSy-104" edge="1">
          <mxGeometry width="50" height="50" relative="1" as="geometry">
            <mxPoint x="320" y="1640" as="sourcePoint" />
            <mxPoint x="540" y="1670" as="targetPoint" />
          </mxGeometry>
        </mxCell>
        <mxCell id="tNRlQZoy6p1RvLxcGZSy-157" value="" style="endArrow=none;dashed=1;html=1;dashPattern=1 3;strokeWidth=2;rounded=0;strokeColor=#000000;fontSize=13;fontColor=#000000;entryX=0;entryY=0.5;entryDx=0;entryDy=0;" parent="1" edge="1">
          <mxGeometry width="50" height="50" relative="1" as="geometry">
            <mxPoint x="880" y="1640" as="sourcePoint" />
            <mxPoint x="920" y="1620" as="targetPoint" />
          </mxGeometry>
        </mxCell>
        <mxCell id="7rcyJY5h7egfLKTG3vJI-1" value="" style="endArrow=none;html=1;rounded=0;" parent="1" source="34TBfXtCDEXkfYJ-5ulG-53" edge="1">
          <mxGeometry width="50" height="50" relative="1" as="geometry">
            <mxPoint x="490" y="1741" as="sourcePoint" />
            <mxPoint x="800" y="1880" as="targetPoint" />
            <Array as="points">
              <mxPoint x="800" y="1740" />
            </Array>
          </mxGeometry>
        </mxCell>
        <mxCell id="7rcyJY5h7egfLKTG3vJI-2" value="" style="endArrow=none;html=1;rounded=0;" parent="1" target="34TBfXtCDEXkfYJ-5ulG-54" edge="1">
          <mxGeometry width="50" height="50" relative="1" as="geometry">
            <mxPoint x="1080" y="1880" as="sourcePoint" />
            <mxPoint x="1090" y="1720" as="targetPoint" />
            <Array as="points">
              <mxPoint x="1080" y="1740" />
            </Array>
          </mxGeometry>
        </mxCell>
        <mxCell id="7rcyJY5h7egfLKTG3vJI-3" value="" style="swimlane;startSize=0;" parent="1" vertex="1">
          <mxGeometry x="765" y="1880" width="345" height="60" as="geometry" />
        </mxCell>
        <mxCell id="7rcyJY5h7egfLKTG3vJI-4" value="&lt;font style=&quot;font-size: 19px;&quot;&gt;Auswertung&lt;/font&gt;" style="text;html=1;align=center;verticalAlign=middle;resizable=0;points=[];autosize=1;strokeColor=none;fillColor=none;" parent="1" vertex="1">
          <mxGeometry x="880" y="1890" width="120" height="40" as="geometry" />
        </mxCell>
        <mxCell id="7rcyJY5h7egfLKTG3vJI-5" value="&lt;font style=&quot;font-size: 19px;&quot;&gt;Messung&lt;/font&gt;" style="rounded=0;whiteSpace=wrap;html=1;" parent="1" vertex="1">
          <mxGeometry x="398.82" y="2050" width="190" height="60" as="geometry" />
        </mxCell>
        <mxCell id="7rcyJY5h7egfLKTG3vJI-6" style="edgeStyle=orthogonalEdgeStyle;rounded=0;orthogonalLoop=1;jettySize=auto;html=1;entryX=0;entryY=0.5;entryDx=0;entryDy=0;fontSize=19;startArrow=none;" parent="1" source="7rcyJY5h7egfLKTG3vJI-33" target="7rcyJY5h7egfLKTG3vJI-5" edge="1">
          <mxGeometry relative="1" as="geometry" />
        </mxCell>
        <mxCell id="7rcyJY5h7egfLKTG3vJI-7" value="sin(&lt;span style=&quot;background-color: rgb(255, 255, 255); font-family: Verdana, sans-serif; text-align: start;&quot;&gt;&lt;font style=&quot;font-size: 18px;&quot;&gt;ω&lt;/font&gt;&lt;/span&gt;t)" style="text;html=1;align=center;verticalAlign=middle;resizable=0;points=[];autosize=1;strokeColor=none;fillColor=none;fontSize=19;" parent="1" vertex="1">
          <mxGeometry x="158.82" y="2060" width="80" height="40" as="geometry" />
        </mxCell>
        <mxCell id="7rcyJY5h7egfLKTG3vJI-8" value="" style="endArrow=classic;html=1;rounded=0;fontSize=19;exitX=1;exitY=0.5;exitDx=0;exitDy=0;" parent="1" source="7rcyJY5h7egfLKTG3vJI-5" target="7rcyJY5h7egfLKTG3vJI-9" edge="1">
          <mxGeometry width="50" height="50" relative="1" as="geometry">
            <mxPoint x="638.82" y="2070" as="sourcePoint" />
            <mxPoint x="678.82" y="2080" as="targetPoint" />
          </mxGeometry>
        </mxCell>
        <mxCell id="7rcyJY5h7egfLKTG3vJI-9" value="" style="triangle;whiteSpace=wrap;html=1;fontSize=19;" parent="1" vertex="1">
          <mxGeometry x="648.82" y="2040" width="60" height="80" as="geometry" />
        </mxCell>
        <mxCell id="7rcyJY5h7egfLKTG3vJI-10" value="i-u wandler" style="text;html=1;align=center;verticalAlign=middle;resizable=0;points=[];autosize=1;strokeColor=none;fillColor=none;fontSize=19;" parent="1" vertex="1">
          <mxGeometry x="618.82" y="2010" width="120" height="40" as="geometry" />
        </mxCell>
        <mxCell id="7rcyJY5h7egfLKTG3vJI-11" value="sin(ωt+φ)" style="text;html=1;align=center;verticalAlign=middle;resizable=0;points=[];autosize=1;strokeColor=none;fillColor=none;fontSize=19;" parent="1" vertex="1">
          <mxGeometry x="748.82" y="2050" width="100" height="40" as="geometry" />
        </mxCell>
        <mxCell id="7rcyJY5h7egfLKTG3vJI-12" value="" style="endArrow=classic;html=1;rounded=0;fontSize=19;exitX=0.517;exitY=0.275;exitDx=0;exitDy=0;exitPerimeter=0;" parent="1" source="7rcyJY5h7egfLKTG3vJI-33" target="7rcyJY5h7egfLKTG3vJI-20" edge="1">
          <mxGeometry width="50" height="50" relative="1" as="geometry">
            <mxPoint x="330" y="2080" as="sourcePoint" />
            <mxPoint x="319.84" y="2140" as="targetPoint" />
            <Array as="points">
              <mxPoint x="360" y="2100" />
              <mxPoint x="360" y="2170" />
            </Array>
          </mxGeometry>
        </mxCell>
        <mxCell id="7rcyJY5h7egfLKTG3vJI-14" value="" style="endArrow=none;html=1;rounded=0;fontSize=19;" parent="1" edge="1">
          <mxGeometry width="50" height="50" relative="1" as="geometry">
            <mxPoint x="708.82" y="2079.9999999999995" as="sourcePoint" />
            <mxPoint x="910" y="2080" as="targetPoint" />
          </mxGeometry>
        </mxCell>
        <mxCell id="7rcyJY5h7egfLKTG3vJI-16" value="" style="endArrow=classic;html=1;rounded=0;fontSize=19;endFill=1;entryX=1;entryY=0;entryDx=0;entryDy=0;" parent="1" target="7rcyJY5h7egfLKTG3vJI-24" edge="1">
          <mxGeometry width="50" height="50" relative="1" as="geometry">
            <mxPoint x="910" y="2080" as="sourcePoint" />
            <mxPoint x="890" y="2180" as="targetPoint" />
            <Array as="points">
              <mxPoint x="910" y="2170" />
            </Array>
          </mxGeometry>
        </mxCell>
        <mxCell id="7rcyJY5h7egfLKTG3vJI-20" value="" style="ellipse;whiteSpace=wrap;html=1;aspect=fixed;fontSize=19;" parent="1" vertex="1">
          <mxGeometry x="310" y="2180" width="40" height="40" as="geometry" />
        </mxCell>
        <mxCell id="7rcyJY5h7egfLKTG3vJI-22" value="" style="endArrow=none;html=1;rounded=0;fontSize=19;exitX=0;exitY=0;exitDx=0;exitDy=0;entryX=1;entryY=1;entryDx=0;entryDy=0;" parent="1" source="7rcyJY5h7egfLKTG3vJI-20" target="7rcyJY5h7egfLKTG3vJI-20" edge="1">
          <mxGeometry width="50" height="50" relative="1" as="geometry">
            <mxPoint x="610" y="2090" as="sourcePoint" />
            <mxPoint x="660" y="2040" as="targetPoint" />
          </mxGeometry>
        </mxCell>
        <mxCell id="7rcyJY5h7egfLKTG3vJI-23" value="" style="endArrow=none;html=1;rounded=0;fontSize=19;exitX=0;exitY=1;exitDx=0;exitDy=0;entryX=1;entryY=0;entryDx=0;entryDy=0;" parent="1" source="7rcyJY5h7egfLKTG3vJI-20" target="7rcyJY5h7egfLKTG3vJI-20" edge="1">
          <mxGeometry width="50" height="50" relative="1" as="geometry">
            <mxPoint x="560" y="2140" as="sourcePoint" />
            <mxPoint x="610" y="2090" as="targetPoint" />
          </mxGeometry>
        </mxCell>
        <mxCell id="7rcyJY5h7egfLKTG3vJI-24" value="" style="ellipse;whiteSpace=wrap;html=1;aspect=fixed;fontSize=19;" parent="1" vertex="1">
          <mxGeometry x="860" y="2180" width="40" height="40" as="geometry" />
        </mxCell>
        <mxCell id="7rcyJY5h7egfLKTG3vJI-25" value="" style="endArrow=none;html=1;rounded=0;fontSize=19;exitX=0;exitY=0;exitDx=0;exitDy=0;entryX=1;entryY=1;entryDx=0;entryDy=0;" parent="1" source="7rcyJY5h7egfLKTG3vJI-24" target="7rcyJY5h7egfLKTG3vJI-24" edge="1">
          <mxGeometry width="50" height="50" relative="1" as="geometry">
            <mxPoint x="1090" y="2070" as="sourcePoint" />
            <mxPoint x="1140" y="2020" as="targetPoint" />
          </mxGeometry>
        </mxCell>
        <mxCell id="7rcyJY5h7egfLKTG3vJI-26" value="" style="endArrow=none;html=1;rounded=0;fontSize=19;exitX=0;exitY=1;exitDx=0;exitDy=0;entryX=1;entryY=0;entryDx=0;entryDy=0;" parent="1" source="7rcyJY5h7egfLKTG3vJI-24" target="7rcyJY5h7egfLKTG3vJI-24" edge="1">
          <mxGeometry width="50" height="50" relative="1" as="geometry">
            <mxPoint x="1040" y="2120" as="sourcePoint" />
            <mxPoint x="1090" y="2070" as="targetPoint" />
          </mxGeometry>
        </mxCell>
        <mxCell id="7rcyJY5h7egfLKTG3vJI-27" value="" style="endArrow=classic;html=1;rounded=0;fontSize=19;startArrow=none;" parent="1" source="7rcyJY5h7egfLKTG3vJI-42" target="7rcyJY5h7egfLKTG3vJI-20" edge="1">
          <mxGeometry width="50" height="50" relative="1" as="geometry">
            <mxPoint x="240" y="2140" as="sourcePoint" />
            <mxPoint x="300" y="2159.9" as="targetPoint" />
            <Array as="points">
              <mxPoint x="300" y="2140" />
              <mxPoint x="300" y="2170" />
            </Array>
          </mxGeometry>
        </mxCell>
        <mxCell id="7rcyJY5h7egfLKTG3vJI-28" value="sin((&lt;font style=&quot;font-size: 18px;&quot;&gt;ω+d&lt;/font&gt;&lt;span style=&quot;font-family: Verdana, sans-serif; font-size: 18px; text-align: start; background-color: rgb(255, 255, 255);&quot;&gt;ω)&lt;/span&gt;t)" style="text;html=1;align=center;verticalAlign=middle;resizable=0;points=[];autosize=1;strokeColor=none;fillColor=none;fontSize=19;" parent="1" vertex="1">
          <mxGeometry x="120" y="2120" width="130" height="40" as="geometry" />
        </mxCell>
        <mxCell id="7rcyJY5h7egfLKTG3vJI-34" value="" style="edgeStyle=orthogonalEdgeStyle;rounded=0;orthogonalLoop=1;jettySize=auto;html=1;entryDx=0;entryDy=0;fontSize=19;endArrow=none;" parent="1" source="7rcyJY5h7egfLKTG3vJI-7" target="7rcyJY5h7egfLKTG3vJI-33" edge="1">
          <mxGeometry relative="1" as="geometry">
            <mxPoint x="238.81999999999994" y="2079.9999999999995" as="sourcePoint" />
            <mxPoint x="398.81999999999994" y="2079.9999999999995" as="targetPoint" />
          </mxGeometry>
        </mxCell>
        <mxCell id="7rcyJY5h7egfLKTG3vJI-33" value="" style="shape=waypoint;sketch=0;size=6;pointerEvents=1;points=[];fillColor=none;resizable=0;rotatable=0;perimeter=centerPerimeter;snapToPoint=1;fontSize=19;" parent="1" vertex="1">
          <mxGeometry x="350" y="2070" width="20" height="20" as="geometry" />
        </mxCell>
        <mxCell id="7rcyJY5h7egfLKTG3vJI-35" value="" style="shape=waypoint;sketch=0;size=6;pointerEvents=1;points=[];fillColor=none;resizable=0;rotatable=0;perimeter=centerPerimeter;snapToPoint=1;fontSize=19;" parent="1" vertex="1">
          <mxGeometry x="310" y="1510" width="20" height="20" as="geometry" />
        </mxCell>
        <mxCell id="7rcyJY5h7egfLKTG3vJI-41" value="" style="endArrow=classic;html=1;rounded=0;fontSize=19;entryX=0;entryY=0;entryDx=0;entryDy=0;" parent="1" target="7rcyJY5h7egfLKTG3vJI-24" edge="1">
          <mxGeometry width="50" height="50" relative="1" as="geometry">
            <mxPoint x="290" y="2140" as="sourcePoint" />
            <mxPoint x="550" y="2130" as="targetPoint" />
            <Array as="points">
              <mxPoint x="850" y="2140" />
              <mxPoint x="850" y="2170" />
            </Array>
          </mxGeometry>
        </mxCell>
        <mxCell id="7rcyJY5h7egfLKTG3vJI-43" value="" style="endArrow=none;html=1;rounded=0;fontSize=19;" parent="1" target="7rcyJY5h7egfLKTG3vJI-42" edge="1">
          <mxGeometry width="50" height="50" relative="1" as="geometry">
            <mxPoint x="240" y="2140" as="sourcePoint" />
            <mxPoint x="315.85786437626894" y="2185.857864376269" as="targetPoint" />
            <Array as="points" />
          </mxGeometry>
        </mxCell>
        <mxCell id="7rcyJY5h7egfLKTG3vJI-42" value="" style="shape=waypoint;sketch=0;size=6;pointerEvents=1;points=[];fillColor=none;resizable=0;rotatable=0;perimeter=centerPerimeter;snapToPoint=1;fontSize=19;" parent="1" vertex="1">
          <mxGeometry x="290" y="2130" width="20" height="20" as="geometry" />
        </mxCell>
        <mxCell id="7rcyJY5h7egfLKTG3vJI-45" value="" style="endArrow=classic;html=1;rounded=0;fontSize=19;exitX=0.5;exitY=1;exitDx=0;exitDy=0;" parent="1" source="7rcyJY5h7egfLKTG3vJI-20" edge="1">
          <mxGeometry width="50" height="50" relative="1" as="geometry">
            <mxPoint x="750" y="2310" as="sourcePoint" />
            <mxPoint x="330" y="2290" as="targetPoint" />
          </mxGeometry>
        </mxCell>
        <mxCell id="7rcyJY5h7egfLKTG3vJI-46" value="" style="endArrow=classic;html=1;rounded=0;fontSize=19;exitX=0.5;exitY=1;exitDx=0;exitDy=0;" parent="1" source="7rcyJY5h7egfLKTG3vJI-24" edge="1">
          <mxGeometry width="50" height="50" relative="1" as="geometry">
            <mxPoint x="750" y="2310" as="sourcePoint" />
            <mxPoint x="880" y="2290" as="targetPoint" />
          </mxGeometry>
        </mxCell>
        <mxCell id="7rcyJY5h7egfLKTG3vJI-47" value="" style="rounded=1;whiteSpace=wrap;html=1;fontSize=19;" parent="1" vertex="1">
          <mxGeometry x="290" y="2290" width="80" height="60" as="geometry" />
        </mxCell>
        <mxCell id="7rcyJY5h7egfLKTG3vJI-53" value="" style="curved=1;endArrow=none;html=1;rounded=0;fontSize=19;endFill=0;" parent="1" edge="1">
          <mxGeometry width="50" height="50" relative="1" as="geometry">
            <mxPoint x="310" y="2310" as="sourcePoint" />
            <mxPoint x="350" y="2310" as="targetPoint" />
            <Array as="points">
              <mxPoint x="320" y="2290" />
              <mxPoint x="340" y="2330" />
            </Array>
          </mxGeometry>
        </mxCell>
        <mxCell id="7rcyJY5h7egfLKTG3vJI-54" value="" style="endArrow=none;html=1;rounded=0;fontSize=19;" parent="1" edge="1">
          <mxGeometry width="50" height="50" relative="1" as="geometry">
            <mxPoint x="320" y="2310" as="sourcePoint" />
            <mxPoint x="330" y="2300" as="targetPoint" />
          </mxGeometry>
        </mxCell>
        <mxCell id="7rcyJY5h7egfLKTG3vJI-55" value="" style="curved=1;endArrow=none;html=1;rounded=0;fontSize=19;endFill=0;fontStyle=1" parent="1" edge="1">
          <mxGeometry width="50" height="50" relative="1" as="geometry">
            <mxPoint x="310" y="2330" as="sourcePoint" />
            <mxPoint x="350" y="2330" as="targetPoint" />
            <Array as="points">
              <mxPoint x="320" y="2310" />
              <mxPoint x="340" y="2350" />
            </Array>
          </mxGeometry>
        </mxCell>
        <mxCell id="7rcyJY5h7egfLKTG3vJI-56" value="" style="rounded=1;whiteSpace=wrap;html=1;fontSize=19;" parent="1" vertex="1">
          <mxGeometry x="840" y="2290" width="80" height="60" as="geometry" />
        </mxCell>
        <mxCell id="7rcyJY5h7egfLKTG3vJI-57" value="" style="curved=1;endArrow=none;html=1;rounded=0;fontSize=19;endFill=0;" parent="1" edge="1">
          <mxGeometry width="50" height="50" relative="1" as="geometry">
            <mxPoint x="860" y="2310" as="sourcePoint" />
            <mxPoint x="900" y="2310" as="targetPoint" />
            <Array as="points">
              <mxPoint x="870" y="2290" />
              <mxPoint x="890" y="2330" />
            </Array>
          </mxGeometry>
        </mxCell>
        <mxCell id="7rcyJY5h7egfLKTG3vJI-58" value="" style="endArrow=none;html=1;rounded=0;fontSize=19;" parent="1" edge="1">
          <mxGeometry width="50" height="50" relative="1" as="geometry">
            <mxPoint x="870" y="2310" as="sourcePoint" />
            <mxPoint x="880" y="2300" as="targetPoint" />
          </mxGeometry>
        </mxCell>
        <mxCell id="7rcyJY5h7egfLKTG3vJI-59" value="" style="curved=1;endArrow=none;html=1;rounded=0;fontSize=19;endFill=0;fontStyle=1" parent="1" edge="1">
          <mxGeometry width="50" height="50" relative="1" as="geometry">
            <mxPoint x="860" y="2330" as="sourcePoint" />
            <mxPoint x="900" y="2330" as="targetPoint" />
            <Array as="points">
              <mxPoint x="870" y="2310" />
              <mxPoint x="890" y="2350" />
            </Array>
          </mxGeometry>
        </mxCell>
        <mxCell id="7rcyJY5h7egfLKTG3vJI-61" value="" style="endArrow=classic;html=1;rounded=0;fontSize=19;exitX=1;exitY=0.5;exitDx=0;exitDy=0;" parent="1" source="7rcyJY5h7egfLKTG3vJI-47" edge="1">
          <mxGeometry width="50" height="50" relative="1" as="geometry">
            <mxPoint x="590" y="2270" as="sourcePoint" />
            <mxPoint x="440" y="2320" as="targetPoint" />
          </mxGeometry>
        </mxCell>
        <mxCell id="7rcyJY5h7egfLKTG3vJI-62" value="" style="endArrow=classic;html=1;rounded=0;fontSize=19;exitX=0;exitY=0.5;exitDx=0;exitDy=0;" parent="1" source="7rcyJY5h7egfLKTG3vJI-56" edge="1">
          <mxGeometry width="50" height="50" relative="1" as="geometry">
            <mxPoint x="590" y="2270" as="sourcePoint" />
            <mxPoint x="760" y="2320" as="targetPoint" />
          </mxGeometry>
        </mxCell>
        <mxCell id="7rcyJY5h7egfLKTG3vJI-92" style="edgeStyle=orthogonalEdgeStyle;rounded=0;orthogonalLoop=1;jettySize=auto;html=1;exitX=0.5;exitY=1;exitDx=0;exitDy=0;entryX=0;entryY=0.5;entryDx=0;entryDy=0;fontSize=19;endArrow=classic;endFill=1;" parent="1" source="7rcyJY5h7egfLKTG3vJI-63" target="7rcyJY5h7egfLKTG3vJI-87" edge="1">
          <mxGeometry relative="1" as="geometry" />
        </mxCell>
        <mxCell id="7rcyJY5h7egfLKTG3vJI-63" value="" style="rounded=1;whiteSpace=wrap;html=1;fontSize=19;" parent="1" vertex="1">
          <mxGeometry x="440" y="2290" width="60" height="60" as="geometry" />
        </mxCell>
        <mxCell id="7rcyJY5h7egfLKTG3vJI-72" value="" style="endArrow=none;html=1;rounded=0;fontSize=19;" parent="1" edge="1">
          <mxGeometry width="50" height="50" relative="1" as="geometry">
            <mxPoint x="455" y="2334.83" as="sourcePoint" />
            <mxPoint x="475" y="2334.83" as="targetPoint" />
          </mxGeometry>
        </mxCell>
        <mxCell id="7rcyJY5h7egfLKTG3vJI-73" value="" style="endArrow=none;html=1;rounded=0;fontSize=19;" parent="1" edge="1">
          <mxGeometry width="50" height="50" relative="1" as="geometry">
            <mxPoint x="465" y="2334.83" as="sourcePoint" />
            <mxPoint x="465" y="2304.83" as="targetPoint" />
          </mxGeometry>
        </mxCell>
        <mxCell id="7rcyJY5h7egfLKTG3vJI-74" value="" style="endArrow=none;html=1;rounded=0;fontSize=19;" parent="1" edge="1">
          <mxGeometry width="50" height="50" relative="1" as="geometry">
            <mxPoint x="475" y="2334.83" as="sourcePoint" />
            <mxPoint x="475" y="2304.83" as="targetPoint" />
            <Array as="points">
              <mxPoint x="475" y="2314.83" />
            </Array>
          </mxGeometry>
        </mxCell>
        <mxCell id="7rcyJY5h7egfLKTG3vJI-75" value="" style="endArrow=none;html=1;rounded=0;fontSize=19;" parent="1" edge="1">
          <mxGeometry width="50" height="50" relative="1" as="geometry">
            <mxPoint x="465" y="2304.83" as="sourcePoint" />
            <mxPoint x="485" y="2304.83" as="targetPoint" />
          </mxGeometry>
        </mxCell>
        <mxCell id="7rcyJY5h7egfLKTG3vJI-93" style="edgeStyle=orthogonalEdgeStyle;rounded=0;orthogonalLoop=1;jettySize=auto;html=1;exitX=0.5;exitY=1;exitDx=0;exitDy=0;entryX=1;entryY=0.5;entryDx=0;entryDy=0;fontSize=19;endArrow=classic;endFill=1;" parent="1" source="7rcyJY5h7egfLKTG3vJI-80" target="7rcyJY5h7egfLKTG3vJI-87" edge="1">
          <mxGeometry relative="1" as="geometry" />
        </mxCell>
        <mxCell id="7rcyJY5h7egfLKTG3vJI-80" value="" style="rounded=1;whiteSpace=wrap;html=1;fontSize=19;" parent="1" vertex="1">
          <mxGeometry x="700" y="2290" width="60" height="60" as="geometry" />
        </mxCell>
        <mxCell id="7rcyJY5h7egfLKTG3vJI-81" value="" style="endArrow=none;html=1;rounded=0;fontSize=19;" parent="1" edge="1">
          <mxGeometry width="50" height="50" relative="1" as="geometry">
            <mxPoint x="715" y="2334.83" as="sourcePoint" />
            <mxPoint x="735" y="2334.83" as="targetPoint" />
          </mxGeometry>
        </mxCell>
        <mxCell id="7rcyJY5h7egfLKTG3vJI-82" value="" style="endArrow=none;html=1;rounded=0;fontSize=19;" parent="1" edge="1">
          <mxGeometry width="50" height="50" relative="1" as="geometry">
            <mxPoint x="725" y="2334.83" as="sourcePoint" />
            <mxPoint x="725" y="2304.83" as="targetPoint" />
          </mxGeometry>
        </mxCell>
        <mxCell id="7rcyJY5h7egfLKTG3vJI-83" value="" style="endArrow=none;html=1;rounded=0;fontSize=19;" parent="1" edge="1">
          <mxGeometry width="50" height="50" relative="1" as="geometry">
            <mxPoint x="735" y="2334.83" as="sourcePoint" />
            <mxPoint x="735" y="2304.83" as="targetPoint" />
            <Array as="points">
              <mxPoint x="735" y="2314.83" />
            </Array>
          </mxGeometry>
        </mxCell>
        <mxCell id="7rcyJY5h7egfLKTG3vJI-84" value="" style="endArrow=none;html=1;rounded=0;fontSize=19;" parent="1" edge="1">
          <mxGeometry width="50" height="50" relative="1" as="geometry">
            <mxPoint x="725" y="2304.83" as="sourcePoint" />
            <mxPoint x="745" y="2304.83" as="targetPoint" />
          </mxGeometry>
        </mxCell>
        <mxCell id="7rcyJY5h7egfLKTG3vJI-87" value="" style="swimlane;startSize=0;" parent="1" vertex="1">
          <mxGeometry x="520" y="2400" width="160" height="60" as="geometry" />
        </mxCell>
        <mxCell id="7rcyJY5h7egfLKTG3vJI-88" value="&lt;font style=&quot;font-size: 19px;&quot;&gt;Auswertung&lt;/font&gt;" style="text;html=1;align=center;verticalAlign=middle;resizable=0;points=[];autosize=1;strokeColor=none;fillColor=none;" parent="1" vertex="1">
          <mxGeometry x="545" y="2410" width="120" height="40" as="geometry" />
        </mxCell>
        <mxCell id="cXez0FupgYQwfhXASM0e-1" value="" style="swimlane;startSize=0;fontSize=19;fontColor=#000000;" vertex="1" parent="1">
          <mxGeometry x="1360" y="1525" width="100" height="80" as="geometry">
            <mxRectangle x="120" y="1640" width="50" height="40" as="alternateBounds" />
          </mxGeometry>
        </mxCell>
        <mxCell id="cXez0FupgYQwfhXASM0e-2" value="" style="endArrow=none;html=1;rounded=0;fontSize=19;fontColor=#000000;" edge="1" parent="cXez0FupgYQwfhXASM0e-1">
          <mxGeometry width="50" height="50" relative="1" as="geometry">
            <mxPoint x="30" y="70" as="sourcePoint" />
            <mxPoint x="90" y="70" as="targetPoint" />
            <Array as="points">
              <mxPoint x="10" y="70" />
              <mxPoint x="30" y="70" />
              <mxPoint x="30" y="30" />
              <mxPoint x="50" y="30" />
              <mxPoint x="50" y="70" />
              <mxPoint x="70" y="70" />
              <mxPoint x="70" y="30" />
              <mxPoint x="90" y="30" />
              <mxPoint x="90" y="70" />
            </Array>
          </mxGeometry>
        </mxCell>
        <mxCell id="cXez0FupgYQwfhXASM0e-3" value="" style="endArrow=none;dashed=1;html=1;rounded=0;fontSize=19;fontColor=#000000;" edge="1" parent="cXez0FupgYQwfhXASM0e-1">
          <mxGeometry width="50" height="50" relative="1" as="geometry">
            <mxPoint x="49.82" y="70.00000000000045" as="sourcePoint" />
            <mxPoint x="49.82" y="10.000000000000455" as="targetPoint" />
          </mxGeometry>
        </mxCell>
        <mxCell id="cXez0FupgYQwfhXASM0e-4" value="" style="endArrow=none;dashed=1;html=1;rounded=0;fontSize=19;fontColor=#000000;" edge="1" parent="cXez0FupgYQwfhXASM0e-1">
          <mxGeometry width="50" height="50" relative="1" as="geometry">
            <mxPoint x="10" y="70" as="sourcePoint" />
            <mxPoint x="10" y="10" as="targetPoint" />
          </mxGeometry>
        </mxCell>
        <mxCell id="cXez0FupgYQwfhXASM0e-5" value="" style="endArrow=classic;startArrow=classic;html=1;rounded=0;fontSize=19;fontColor=#000000;" edge="1" parent="cXez0FupgYQwfhXASM0e-1">
          <mxGeometry width="50" height="50" relative="1" as="geometry">
            <mxPoint x="10" y="20" as="sourcePoint" />
            <mxPoint x="50" y="20" as="targetPoint" />
          </mxGeometry>
        </mxCell>
        <mxCell id="cXez0FupgYQwfhXASM0e-6" value="T" style="text;html=1;align=center;verticalAlign=middle;resizable=0;points=[];autosize=1;strokeColor=none;fillColor=none;fontSize=13;fontColor=#000000;" vertex="1" parent="1">
          <mxGeometry x="1375" y="1520" width="30" height="30" as="geometry" />
        </mxCell>
        <mxCell id="cXez0FupgYQwfhXASM0e-7" value="" style="swimlane;startSize=0;fontSize=19;fontColor=#000000;" vertex="1" parent="1">
          <mxGeometry x="1360" y="1430" width="100" height="80" as="geometry">
            <mxRectangle x="120" y="1640" width="50" height="40" as="alternateBounds" />
          </mxGeometry>
        </mxCell>
        <mxCell id="cXez0FupgYQwfhXASM0e-8" value="" style="endArrow=none;dashed=1;html=1;rounded=0;fontSize=19;fontColor=#000000;" edge="1" parent="cXez0FupgYQwfhXASM0e-7">
          <mxGeometry width="50" height="50" relative="1" as="geometry">
            <mxPoint x="49.82" y="70.00000000000045" as="sourcePoint" />
            <mxPoint x="49.82" y="10.000000000000455" as="targetPoint" />
          </mxGeometry>
        </mxCell>
        <mxCell id="cXez0FupgYQwfhXASM0e-9" value="" style="endArrow=none;dashed=1;html=1;rounded=0;fontSize=19;fontColor=#000000;" edge="1" parent="cXez0FupgYQwfhXASM0e-7">
          <mxGeometry width="50" height="50" relative="1" as="geometry">
            <mxPoint x="10" y="70" as="sourcePoint" />
            <mxPoint x="10" y="10" as="targetPoint" />
          </mxGeometry>
        </mxCell>
        <mxCell id="cXez0FupgYQwfhXASM0e-10" value="" style="endArrow=classic;startArrow=classic;html=1;rounded=0;fontSize=19;fontColor=#000000;" edge="1" parent="cXez0FupgYQwfhXASM0e-7">
          <mxGeometry width="50" height="50" relative="1" as="geometry">
            <mxPoint x="10" y="20" as="sourcePoint" />
            <mxPoint x="50" y="20" as="targetPoint" />
          </mxGeometry>
        </mxCell>
        <mxCell id="cXez0FupgYQwfhXASM0e-11" value="" style="endArrow=none;html=1;rounded=0;fontSize=19;fontColor=#000000;strokeColor=#B3B3B3;" edge="1" parent="cXez0FupgYQwfhXASM0e-7">
          <mxGeometry width="50" height="50" relative="1" as="geometry">
            <mxPoint x="30" y="70" as="sourcePoint" />
            <mxPoint x="90" y="70" as="targetPoint" />
            <Array as="points">
              <mxPoint x="10" y="70" />
              <mxPoint x="30" y="70" />
              <mxPoint x="30" y="30" />
              <mxPoint x="50" y="30" />
              <mxPoint x="50" y="70" />
              <mxPoint x="70" y="70" />
              <mxPoint x="70" y="30" />
              <mxPoint x="90" y="30" />
              <mxPoint x="90" y="70" />
            </Array>
          </mxGeometry>
        </mxCell>
        <mxCell id="cXez0FupgYQwfhXASM0e-12" value="" style="endArrow=none;html=1;rounded=0;fontSize=19;fontColor=#000000;" edge="1" parent="cXez0FupgYQwfhXASM0e-7">
          <mxGeometry width="50" height="50" relative="1" as="geometry">
            <mxPoint x="40" y="70" as="sourcePoint" />
            <mxPoint x="100" y="70" as="targetPoint" />
            <Array as="points">
              <mxPoint x="20" y="70" />
              <mxPoint x="40" y="70" />
              <mxPoint x="40" y="30" />
              <mxPoint x="60" y="30" />
              <mxPoint x="60" y="70" />
              <mxPoint x="80" y="70" />
              <mxPoint x="80" y="30" />
              <mxPoint x="100" y="30" />
              <mxPoint x="100" y="70" />
            </Array>
          </mxGeometry>
        </mxCell>
        <mxCell id="cXez0FupgYQwfhXASM0e-13" value="" style="endArrow=none;dashed=1;html=1;rounded=0;fontSize=19;fontColor=#000000;" edge="1" parent="cXez0FupgYQwfhXASM0e-7">
          <mxGeometry width="50" height="50" relative="1" as="geometry">
            <mxPoint x="69.99999999999989" y="70.00000000000045" as="sourcePoint" />
            <mxPoint x="69.99999999999989" y="10.000000000000455" as="targetPoint" />
          </mxGeometry>
        </mxCell>
        <mxCell id="cXez0FupgYQwfhXASM0e-14" value="" style="endArrow=none;dashed=1;html=1;rounded=0;fontSize=19;fontColor=#000000;" edge="1" parent="cXez0FupgYQwfhXASM0e-7">
          <mxGeometry width="50" height="50" relative="1" as="geometry">
            <mxPoint x="80" y="70.00000000000045" as="sourcePoint" />
            <mxPoint x="80" y="10.000000000000455" as="targetPoint" />
          </mxGeometry>
        </mxCell>
        <mxCell id="cXez0FupgYQwfhXASM0e-15" value="&lt;p style=&quot;line-height: 120%;&quot;&gt;φ&lt;/p&gt;" style="text;html=1;align=center;verticalAlign=middle;resizable=0;points=[];autosize=1;strokeColor=none;fillColor=none;fontSize=13;fontColor=#000000;" vertex="1" parent="cXez0FupgYQwfhXASM0e-7">
          <mxGeometry x="60" y="-20" width="30" height="60" as="geometry" />
        </mxCell>
        <mxCell id="cXez0FupgYQwfhXASM0e-16" value="" style="endArrow=classic;html=1;rounded=0;strokeColor=#000000;fontSize=13;fontColor=#000000;" edge="1" parent="1">
          <mxGeometry width="50" height="50" relative="1" as="geometry">
            <mxPoint x="1420" y="1450" as="sourcePoint" />
            <mxPoint x="1430" y="1450" as="targetPoint" />
          </mxGeometry>
        </mxCell>
        <mxCell id="cXez0FupgYQwfhXASM0e-17" value="" style="endArrow=classic;html=1;rounded=0;strokeColor=#000000;fontSize=13;fontColor=#000000;" edge="1" parent="1">
          <mxGeometry width="50" height="50" relative="1" as="geometry">
            <mxPoint x="1450" y="1450" as="sourcePoint" />
            <mxPoint x="1440" y="1450" as="targetPoint" />
          </mxGeometry>
        </mxCell>
        <mxCell id="cXez0FupgYQwfhXASM0e-18" value="" style="endArrow=none;html=1;rounded=0;entryX=1;entryY=0.5;entryDx=0;entryDy=0;exitX=0;exitY=0.25;exitDx=0;exitDy=0;" edge="1" parent="1" source="cXez0FupgYQwfhXASM0e-41" target="cXez0FupgYQwfhXASM0e-1">
          <mxGeometry width="50" height="50" relative="1" as="geometry">
            <mxPoint x="1660" y="1565" as="sourcePoint" />
            <mxPoint x="1470" y="1620" as="targetPoint" />
            <Array as="points">
              <mxPoint x="1600" y="1615" />
              <mxPoint x="1600" y="1565" />
            </Array>
          </mxGeometry>
        </mxCell>
        <mxCell id="cXez0FupgYQwfhXASM0e-25" value="" style="swimlane;startSize=0;fontSize=19;fontColor=#000000;" vertex="1" parent="1">
          <mxGeometry x="1360" y="1620" width="100" height="80" as="geometry">
            <mxRectangle x="120" y="1640" width="50" height="40" as="alternateBounds" />
          </mxGeometry>
        </mxCell>
        <mxCell id="cXez0FupgYQwfhXASM0e-26" value="" style="endArrow=none;html=1;rounded=0;fontSize=19;fontColor=#000000;" edge="1" parent="cXez0FupgYQwfhXASM0e-25">
          <mxGeometry width="50" height="50" relative="1" as="geometry">
            <mxPoint x="10" y="70" as="sourcePoint" />
            <mxPoint x="90" y="70" as="targetPoint" />
            <Array as="points">
              <mxPoint x="20" y="70" />
              <mxPoint x="20" y="30" />
              <mxPoint x="30" y="30" />
              <mxPoint x="30" y="70" />
              <mxPoint x="40" y="70" />
              <mxPoint x="40" y="30" />
              <mxPoint x="50" y="30" />
              <mxPoint x="50" y="70" />
              <mxPoint x="60" y="70" />
              <mxPoint x="60" y="30" />
              <mxPoint x="70" y="30" />
              <mxPoint x="70" y="70" />
              <mxPoint x="80" y="70" />
              <mxPoint x="80" y="30" />
              <mxPoint x="90" y="30" />
              <mxPoint x="90" y="70" />
            </Array>
          </mxGeometry>
        </mxCell>
        <mxCell id="cXez0FupgYQwfhXASM0e-38" value="Takt" style="text;html=1;align=center;verticalAlign=middle;resizable=0;points=[];autosize=1;strokeColor=none;fillColor=none;fontSize=13;fontColor=#000000;" vertex="1" parent="1">
          <mxGeometry x="1460" y="1630" width="50" height="30" as="geometry" />
        </mxCell>
        <mxCell id="cXez0FupgYQwfhXASM0e-39" value="Eingangssignal" style="text;html=1;align=center;verticalAlign=middle;resizable=0;points=[];autosize=1;strokeColor=none;fillColor=none;fontSize=13;fontColor=#000000;" vertex="1" parent="1">
          <mxGeometry x="1460" y="1535" width="110" height="30" as="geometry" />
        </mxCell>
        <mxCell id="cXez0FupgYQwfhXASM0e-40" value="Verschobenes Signal" style="text;html=1;align=center;verticalAlign=middle;resizable=0;points=[];autosize=1;strokeColor=none;fillColor=none;fontSize=13;fontColor=#000000;" vertex="1" parent="1">
          <mxGeometry x="1459" y="1440" width="150" height="30" as="geometry" />
        </mxCell>
        <mxCell id="cXez0FupgYQwfhXASM0e-41" value="" style="rounded=0;whiteSpace=wrap;html=1;" vertex="1" parent="1">
          <mxGeometry x="1740" y="1600" width="50" height="60" as="geometry" />
        </mxCell>
        <mxCell id="cXez0FupgYQwfhXASM0e-42" value="&lt;font style=&quot;font-size: 19px;&quot;&gt;&amp;amp;&lt;/font&gt;" style="text;html=1;align=center;verticalAlign=middle;resizable=0;points=[];autosize=1;strokeColor=none;fillColor=none;fontSize=13;fontColor=#000000;" vertex="1" parent="1">
          <mxGeometry x="1745" y="1610" width="40" height="40" as="geometry" />
        </mxCell>
        <mxCell id="cXez0FupgYQwfhXASM0e-48" value="" style="rounded=0;whiteSpace=wrap;html=1;" vertex="1" parent="1">
          <mxGeometry x="1640" y="1490" width="50" height="60" as="geometry" />
        </mxCell>
        <mxCell id="cXez0FupgYQwfhXASM0e-49" value="&lt;font style=&quot;font-size: 19px;&quot;&gt;XOR&lt;/font&gt;" style="text;html=1;align=center;verticalAlign=middle;resizable=0;points=[];autosize=1;strokeColor=none;fillColor=none;fontSize=13;fontColor=#000000;" vertex="1" parent="1">
          <mxGeometry x="1635" y="1500" width="60" height="40" as="geometry" />
        </mxCell>
        <mxCell id="cXez0FupgYQwfhXASM0e-50" value="" style="endArrow=none;html=1;rounded=0;" edge="1" parent="1">
          <mxGeometry width="50" height="50" relative="1" as="geometry">
            <mxPoint x="1600" y="1570" as="sourcePoint" />
            <mxPoint x="1640" y="1530" as="targetPoint" />
            <Array as="points">
              <mxPoint x="1600" y="1530" />
            </Array>
          </mxGeometry>
        </mxCell>
        <mxCell id="cXez0FupgYQwfhXASM0e-51" value="" style="endArrow=none;html=1;rounded=0;entryX=0.083;entryY=0.25;entryDx=0;entryDy=0;entryPerimeter=0;" edge="1" parent="1" target="cXez0FupgYQwfhXASM0e-49">
          <mxGeometry width="50" height="50" relative="1" as="geometry">
            <mxPoint x="1460" y="1470" as="sourcePoint" />
            <mxPoint x="1690" y="1480" as="targetPoint" />
            <Array as="points">
              <mxPoint x="1600" y="1470" />
              <mxPoint x="1600" y="1510" />
            </Array>
          </mxGeometry>
        </mxCell>
        <mxCell id="cXez0FupgYQwfhXASM0e-52" value="" style="rounded=0;whiteSpace=wrap;html=1;" vertex="1" parent="1">
          <mxGeometry x="1740" y="1505" width="50" height="60" as="geometry" />
        </mxCell>
        <mxCell id="cXez0FupgYQwfhXASM0e-53" value="&lt;font style=&quot;font-size: 19px;&quot;&gt;&amp;amp;&lt;/font&gt;" style="text;html=1;align=center;verticalAlign=middle;resizable=0;points=[];autosize=1;strokeColor=none;fillColor=none;fontSize=13;fontColor=#000000;" vertex="1" parent="1">
          <mxGeometry x="1745" y="1515" width="40" height="40" as="geometry" />
        </mxCell>
        <mxCell id="cXez0FupgYQwfhXASM0e-54" value="" style="endArrow=none;html=1;rounded=0;entryX=0;entryY=0.75;entryDx=0;entryDy=0;exitX=1;exitY=0.5;exitDx=0;exitDy=0;" edge="1" parent="1" source="cXez0FupgYQwfhXASM0e-25" target="cXez0FupgYQwfhXASM0e-52">
          <mxGeometry width="50" height="50" relative="1" as="geometry">
            <mxPoint x="1600" y="1680" as="sourcePoint" />
            <mxPoint x="1890" y="1580" as="targetPoint" />
            <Array as="points">
              <mxPoint x="1710" y="1660" />
              <mxPoint x="1710" y="1550" />
            </Array>
          </mxGeometry>
        </mxCell>
        <mxCell id="cXez0FupgYQwfhXASM0e-56" value="" style="endArrow=none;html=1;rounded=0;entryX=0;entryY=0.75;entryDx=0;entryDy=0;" edge="1" parent="1" target="cXez0FupgYQwfhXASM0e-41">
          <mxGeometry width="50" height="50" relative="1" as="geometry">
            <mxPoint x="1710" y="1645" as="sourcePoint" />
            <mxPoint x="1800" y="1590" as="targetPoint" />
          </mxGeometry>
        </mxCell>
        <mxCell id="cXez0FupgYQwfhXASM0e-57" value="" style="endArrow=none;html=1;rounded=0;entryX=0;entryY=0.25;entryDx=0;entryDy=0;exitX=1;exitY=0.5;exitDx=0;exitDy=0;" edge="1" parent="1" source="cXez0FupgYQwfhXASM0e-48" target="cXez0FupgYQwfhXASM0e-52">
          <mxGeometry width="50" height="50" relative="1" as="geometry">
            <mxPoint x="1810" y="1610" as="sourcePoint" />
            <mxPoint x="1860" y="1560" as="targetPoint" />
          </mxGeometry>
        </mxCell>
        <mxCell id="cXez0FupgYQwfhXASM0e-60" value="&lt;font style=&quot;font-size: 19px;&quot;&gt;Zähler&lt;/font&gt;" style="rounded=0;whiteSpace=wrap;html=1;" vertex="1" parent="1">
          <mxGeometry x="1830" y="1505" width="170" height="60" as="geometry" />
        </mxCell>
        <mxCell id="cXez0FupgYQwfhXASM0e-61" value="" style="endArrow=classic;html=1;rounded=0;exitX=1;exitY=0.5;exitDx=0;exitDy=0;entryX=0;entryY=0.5;entryDx=0;entryDy=0;" edge="1" parent="1" source="cXez0FupgYQwfhXASM0e-52" target="cXez0FupgYQwfhXASM0e-60">
          <mxGeometry width="50" height="50" relative="1" as="geometry">
            <mxPoint x="1790" y="1600" as="sourcePoint" />
            <mxPoint x="1840" y="1550" as="targetPoint" />
          </mxGeometry>
        </mxCell>
        <mxCell id="cXez0FupgYQwfhXASM0e-63" value="&lt;font style=&quot;font-size: 19px;&quot;&gt;Zähler&lt;/font&gt;" style="rounded=0;whiteSpace=wrap;html=1;" vertex="1" parent="1">
          <mxGeometry x="1830" y="1600" width="170" height="60" as="geometry" />
        </mxCell>
        <mxCell id="cXez0FupgYQwfhXASM0e-64" value="" style="endArrow=classic;html=1;rounded=0;exitX=1;exitY=0.5;exitDx=0;exitDy=0;" edge="1" parent="1">
          <mxGeometry width="50" height="50" relative="1" as="geometry">
            <mxPoint x="1790" y="1629.58" as="sourcePoint" />
            <mxPoint x="1830" y="1630" as="targetPoint" />
          </mxGeometry>
        </mxCell>
        <mxCell id="cXez0FupgYQwfhXASM0e-67" value="&lt;font style=&quot;font-size: 19px;&quot;&gt;Input-Shift&lt;/font&gt;" style="rounded=0;whiteSpace=wrap;html=1;" vertex="1" parent="1">
          <mxGeometry x="2040" y="1505" width="170" height="60" as="geometry" />
        </mxCell>
        <mxCell id="cXez0FupgYQwfhXASM0e-68" value="" style="endArrow=classic;html=1;rounded=0;exitX=1;exitY=0.5;exitDx=0;exitDy=0;entryX=0;entryY=0.5;entryDx=0;entryDy=0;" edge="1" parent="1" target="cXez0FupgYQwfhXASM0e-67">
          <mxGeometry width="50" height="50" relative="1" as="geometry">
            <mxPoint x="2000" y="1535" as="sourcePoint" />
            <mxPoint x="2050" y="1550" as="targetPoint" />
          </mxGeometry>
        </mxCell>
        <mxCell id="cXez0FupgYQwfhXASM0e-69" value="&lt;font style=&quot;font-size: 19px;&quot;&gt;Input-Shift&lt;/font&gt;" style="rounded=0;whiteSpace=wrap;html=1;" vertex="1" parent="1">
          <mxGeometry x="2040" y="1600" width="170" height="60" as="geometry" />
        </mxCell>
        <mxCell id="cXez0FupgYQwfhXASM0e-70" value="" style="endArrow=classic;html=1;rounded=0;exitX=1;exitY=0.5;exitDx=0;exitDy=0;" edge="1" parent="1">
          <mxGeometry width="50" height="50" relative="1" as="geometry">
            <mxPoint x="2000" y="1629.58" as="sourcePoint" />
            <mxPoint x="2040" y="1630" as="targetPoint" />
          </mxGeometry>
        </mxCell>
        <mxCell id="cXez0FupgYQwfhXASM0e-71" value="" style="rounded=0;whiteSpace=wrap;html=1;" vertex="1" parent="1">
          <mxGeometry x="2250" y="1510" width="120" height="150" as="geometry" />
        </mxCell>
        <mxCell id="cXez0FupgYQwfhXASM0e-73" value="&lt;font style=&quot;font-size: 19px;&quot;&gt;ESP32&lt;/font&gt;" style="text;html=1;align=center;verticalAlign=middle;resizable=0;points=[];autosize=1;strokeColor=none;fillColor=none;fontSize=13;fontColor=#000000;" vertex="1" parent="1">
          <mxGeometry x="2270" y="1565" width="80" height="40" as="geometry" />
        </mxCell>
        <mxCell id="cXez0FupgYQwfhXASM0e-74" value="" style="endArrow=classic;html=1;rounded=0;exitX=1;exitY=0.5;exitDx=0;exitDy=0;entryX=0;entryY=0.5;entryDx=0;entryDy=0;" edge="1" parent="1">
          <mxGeometry width="50" height="50" relative="1" as="geometry">
            <mxPoint x="2210" y="1534.67" as="sourcePoint" />
            <mxPoint x="2250" y="1534.67" as="targetPoint" />
          </mxGeometry>
        </mxCell>
        <mxCell id="cXez0FupgYQwfhXASM0e-75" value="" style="endArrow=classic;html=1;rounded=0;exitX=1;exitY=0.5;exitDx=0;exitDy=0;entryX=0;entryY=0.5;entryDx=0;entryDy=0;" edge="1" parent="1">
          <mxGeometry width="50" height="50" relative="1" as="geometry">
            <mxPoint x="2210" y="1630" as="sourcePoint" />
            <mxPoint x="2250" y="1630" as="targetPoint" />
          </mxGeometry>
        </mxCell>
        <mxCell id="cXez0FupgYQwfhXASM0e-76" value="" style="endArrow=classic;html=1;rounded=0;exitX=0.25;exitY=0;exitDx=0;exitDy=0;entryX=0.5;entryY=0;entryDx=0;entryDy=0;" edge="1" parent="1" source="cXez0FupgYQwfhXASM0e-71" target="cXez0FupgYQwfhXASM0e-60">
          <mxGeometry width="50" height="50" relative="1" as="geometry">
            <mxPoint x="2080" y="1540" as="sourcePoint" />
            <mxPoint x="2310" y="1460" as="targetPoint" />
            <Array as="points">
              <mxPoint x="2280" y="1460" />
              <mxPoint x="1915" y="1460" />
            </Array>
          </mxGeometry>
        </mxCell>
        <mxCell id="cXez0FupgYQwfhXASM0e-77" value="" style="endArrow=classic;html=1;rounded=0;exitX=0.25;exitY=1;exitDx=0;exitDy=0;entryX=0.5;entryY=1;entryDx=0;entryDy=0;" edge="1" parent="1" source="cXez0FupgYQwfhXASM0e-71" target="cXez0FupgYQwfhXASM0e-63">
          <mxGeometry width="50" height="50" relative="1" as="geometry">
            <mxPoint x="2110" y="1640" as="sourcePoint" />
            <mxPoint x="2160" y="1590" as="targetPoint" />
            <Array as="points">
              <mxPoint x="2280" y="1710" />
              <mxPoint x="1915" y="1710" />
            </Array>
          </mxGeometry>
        </mxCell>
      </root>
    </mxGraphModel>
  </diagram>
</mxfile>
